<svg xmlns="http://www.w3.org/2000/svg" xmlns:xlink="http://www.w3.org/1999/xlink" width="500" zoomAndPan="magnify" viewBox="0 0 375 374.999991" height="500" preserveAspectRatio="xMidYMid meet" version="1.0"><defs><g/><clipPath id="id1"><path d="M 94.503906 128 L 281 128 L 281 178.492188 L 94.503906 178.492188 Z M 94.503906 128 " clip-rule="nonzero"/></clipPath><clipPath id="id2"><path d="M 94.503906 59.335938 L 281 59.335938 L 281 110 L 94.503906 110 Z M 94.503906 59.335938 " clip-rule="nonzero"/></clipPath></defs><path fill="#1f2d38" d="M 166.765625 136.164062 C 163.335938 136.175781 160.542969 133.425781 160.53125 130.023438 C 160.515625 126.617188 163.285156 123.847656 166.71875 123.832031 C 170.148438 123.820312 172.941406 126.570312 172.957031 129.972656 C 172.96875 133.378906 170.199219 136.148438 166.765625 136.164062 Z M 222.875 110.601562 C 221.476562 113.296875 218.65625 115.144531 215.390625 115.160156 C 210.71875 115.175781 206.914062 111.433594 206.894531 106.800781 C 206.878906 102.160156 210.652344 98.390625 215.324219 98.371094 C 216.09375 98.367188 216.835938 98.476562 217.546875 98.667969 C 211.015625 89.21875 200.042969 83.042969 187.628906 83.089844 C 167.695312 83.164062 151.601562 99.265625 151.675781 119.046875 C 151.753906 138.824219 167.976562 154.800781 187.910156 154.722656 C 207.84375 154.644531 223.9375 138.542969 223.863281 118.765625 C 223.851562 115.953125 223.503906 113.222656 222.875 110.601562 " fill-opacity="1" fill-rule="nonzero"/><g clip-path="url(#id1)"><path fill="#1c5a81" d="M 187.769531 159.558594 C 159.082031 159.558594 133.425781 138.742188 122.386719 128.335938 L 94.558594 128.335938 L 99.621094 134.117188 C 101.210938 135.925781 139.0625 178.496094 187.769531 178.496094 C 236.476562 178.496094 274.328125 135.925781 275.917969 134.117188 L 280.984375 128.335938 L 253.152344 128.335938 C 242.109375 138.75 216.449219 159.558594 187.769531 159.558594 " fill-opacity="1" fill-rule="nonzero"/></g><g clip-path="url(#id2)"><path fill="#2880b8" d="M 187.769531 59.316406 C 139.0625 59.316406 101.210938 101.882812 99.621094 103.695312 L 94.558594 109.476562 L 122.386719 109.476562 L 122.375 109.464844 C 133.371094 99.050781 158.949219 78.25 187.769531 78.25 C 216.449219 78.25 242.105469 99.0625 253.152344 109.476562 L 280.984375 109.476562 L 275.917969 103.695312 C 274.328125 101.882812 236.476562 59.316406 187.769531 59.316406 " fill-opacity="1" fill-rule="nonzero"/></g><g fill="#1f2d38" fill-opacity="1"><g transform="translate(45.550546, 245.716873)"><g><path d="M 19.953125 -35.390625 C 22.554688 -35.390625 25.117188 -34.851562 27.640625 -33.78125 C 30.160156 -32.71875 32.304688 -31.28125 34.078125 -29.46875 L 28.921875 -23.359375 C 27.785156 -24.765625 26.421875 -25.875 24.828125 -26.6875 C 23.242188 -27.507812 21.664062 -27.921875 20.09375 -27.921875 C 17.320312 -27.921875 15 -26.941406 13.125 -24.984375 C 11.257812 -23.035156 10.328125 -20.625 10.328125 -17.75 C 10.328125 -14.800781 11.257812 -12.34375 13.125 -10.375 C 15 -8.40625 17.320312 -7.421875 20.09375 -7.421875 C 21.570312 -7.421875 23.101562 -7.785156 24.6875 -8.515625 C 26.269531 -9.253906 27.679688 -10.257812 28.921875 -11.53125 L 34.140625 -6.015625 C 32.234375 -4.078125 29.984375 -2.519531 27.390625 -1.34375 C 24.804688 -0.175781 22.226562 0.40625 19.65625 0.40625 C 14.375 0.40625 9.976562 -1.3125 6.46875 -4.75 C 2.957031 -8.195312 1.203125 -12.492188 1.203125 -17.640625 C 1.203125 -22.691406 2.988281 -26.910156 6.5625 -30.296875 C 10.144531 -33.691406 14.609375 -35.390625 19.953125 -35.390625 Z M 19.953125 -35.390625 "/></g></g></g><g fill="#1f2d38" fill-opacity="1"><g transform="translate(83.086706, 245.716873)"><g><path d="M 20.15625 -35.390625 C 25.601562 -35.390625 30.128906 -33.691406 33.734375 -30.296875 C 37.335938 -26.910156 39.140625 -22.675781 39.140625 -17.59375 C 39.140625 -12.476562 37.328125 -8.195312 33.703125 -4.75 C 30.078125 -1.3125 25.554688 0.40625 20.140625 0.40625 C 14.734375 0.40625 10.222656 -1.304688 6.609375 -4.734375 C 3.003906 -8.160156 1.203125 -12.445312 1.203125 -17.59375 C 1.203125 -22.707031 3.003906 -26.953125 6.609375 -30.328125 C 10.222656 -33.703125 14.738281 -35.390625 20.15625 -35.390625 Z M 20.25 -27.921875 C 17.507812 -27.921875 15.171875 -26.925781 13.234375 -24.9375 C 11.296875 -22.945312 10.328125 -20.476562 10.328125 -17.53125 C 10.328125 -14.59375 11.300781 -12.113281 13.25 -10.09375 C 15.207031 -8.070312 17.539062 -7.0625 20.25 -7.0625 C 22.957031 -7.0625 25.253906 -8.070312 27.140625 -10.09375 C 29.023438 -12.113281 29.96875 -14.59375 29.96875 -17.53125 C 29.96875 -20.476562 29.023438 -22.945312 27.140625 -24.9375 C 25.253906 -26.925781 22.957031 -27.921875 20.25 -27.921875 Z M 20.25 -27.921875 "/></g></g></g><g fill="#1f2d38" fill-opacity="1"><g transform="translate(126.285701, 245.716873)"><g><path d="M 42.0625 0 L 34.1875 0 L 34.140625 -22.8125 L 25.71875 -3.515625 L 19.90625 -3.515625 L 11.484375 -22.8125 L 11.484375 0 L 3.515625 0 L 3.515625 -35.140625 L 13.28125 -35.140625 L 22.8125 -14.234375 L 32.328125 -35.140625 L 42.0625 -35.140625 Z M 42.0625 0 "/></g></g></g><g fill="#1f2d38" fill-opacity="1"><g transform="translate(174.746611, 245.716873)"><g><path d="M 3.515625 -35.09375 L 18.796875 -35.09375 C 23.273438 -35.09375 26.75 -34.03125 29.21875 -31.90625 C 31.695312 -29.78125 32.9375 -26.765625 32.9375 -22.859375 C 32.9375 -18.742188 31.695312 -15.550781 29.21875 -13.28125 C 26.75 -11.007812 23.273438 -9.875 18.796875 -9.875 L 12.4375 -9.875 L 12.4375 0 L 3.515625 0 Z M 12.4375 -28.0625 L 12.4375 -16.890625 L 18.34375 -16.890625 C 20.3125 -16.890625 21.832031 -17.375 22.90625 -18.34375 C 23.976562 -19.3125 24.515625 -20.71875 24.515625 -22.5625 C 24.515625 -24.363281 23.976562 -25.726562 22.90625 -26.65625 C 21.832031 -27.59375 20.3125 -28.0625 18.34375 -28.0625 Z M 12.4375 -28.0625 "/></g></g></g><g fill="#1f2d38" fill-opacity="1"><g transform="translate(211.681411, 245.716873)"><g><path d="M 26.8125 -6.46875 L 11.484375 -6.46875 L 8.921875 0 L -0.25 0 L 14.890625 -35.09375 L 24.0625 -35.09375 L 38.84375 0 L 29.328125 0 Z M 24.203125 -13.234375 L 19.203125 -26.21875 L 14.078125 -13.234375 Z M 24.203125 -13.234375 "/></g></g></g><g fill="#1f2d38" fill-opacity="1"><g transform="translate(253.126428, 245.716873)"><g><path d="M 35.890625 0 L 28.015625 0 L 11.875 -21.609375 L 11.875 0 L 3.515625 0 L 3.515625 -35.09375 L 11.375 -35.09375 L 27.5625 -13.4375 L 27.5625 -35.09375 L 35.890625 -35.09375 Z M 35.890625 0 "/></g></g></g><g fill="#1f2d38" fill-opacity="1"><g transform="translate(295.373265, 245.716873)"><g><path d="M 21.609375 -11.328125 L 21.609375 0 L 12.734375 0 L 12.734375 -11.078125 L -0.25 -35.09375 L 8.671875 -35.09375 L 17.140625 -19.796875 L 25.40625 -35.09375 L 34.328125 -35.09375 Z M 21.609375 -11.328125 "/></g></g></g><g fill="#1f2d38" fill-opacity="1"><g transform="translate(332.307036, 245.716873)"><g/></g></g><g fill="#1f2d38" fill-opacity="1"><g transform="translate(34.985407, 305.302637)"><g><path d="M 24.65625 0 L 19.453125 -9.875 L 12.4375 -9.875 L 12.4375 0 L 3.515625 0 L 3.515625 -35.09375 L 19.203125 -35.09375 C 23.847656 -35.09375 27.4375 -34.03125 29.96875 -31.90625 C 32.507812 -29.78125 33.78125 -26.765625 33.78125 -22.859375 C 33.78125 -17.441406 31.660156 -13.679688 27.421875 -11.578125 L 34.78125 0 Z M 12.4375 -16.890625 L 19.203125 -16.890625 C 21.140625 -16.890625 22.640625 -17.375 23.703125 -18.34375 C 24.773438 -19.3125 25.3125 -20.71875 25.3125 -22.5625 C 25.3125 -24.363281 24.773438 -25.726562 23.703125 -26.65625 C 22.640625 -27.59375 21.140625 -28.0625 19.203125 -28.0625 L 12.4375 -28.0625 Z M 12.4375 -16.890625 "/></g></g></g><g fill="#1f2d38" fill-opacity="1"><g transform="translate(74.125191, 305.302637)"><g><path d="M 30.984375 -28.0625 L 12.4375 -28.0625 L 12.4375 -21.109375 L 29.171875 -21.109375 L 29.171875 -14.078125 L 12.4375 -14.078125 L 12.4375 -7.015625 L 31.53125 -7.015625 L 31.53125 0 L 3.515625 0 L 3.515625 -35.09375 L 30.984375 -35.09375 Z M 30.984375 -28.0625 "/></g></g></g><g fill="#1f2d38" fill-opacity="1"><g transform="translate(110.7593, 305.302637)"><g><path d="M 17 -35.484375 C 22.238281 -35.484375 26.847656 -34.179688 30.828125 -31.578125 L 27.46875 -24.609375 C 25.632812 -25.679688 23.660156 -26.554688 21.546875 -27.234375 C 19.441406 -27.921875 17.671875 -28.265625 16.234375 -28.265625 C 13.660156 -28.265625 12.375 -27.414062 12.375 -25.71875 C 12.375 -24.613281 13.007812 -23.726562 14.28125 -23.0625 C 15.550781 -22.394531 17.097656 -21.816406 18.921875 -21.328125 C 20.742188 -20.835938 22.566406 -20.25 24.390625 -19.5625 C 26.210938 -18.882812 27.753906 -17.773438 29.015625 -16.234375 C 30.285156 -14.703125 30.921875 -12.765625 30.921875 -10.421875 C 30.921875 -7.046875 29.597656 -4.414062 26.953125 -2.53125 C 24.316406 -0.644531 20.960938 0.296875 16.890625 0.296875 C 13.984375 0.296875 11.109375 -0.203125 8.265625 -1.203125 C 5.429688 -2.203125 2.960938 -3.570312 0.859375 -5.3125 L 4.3125 -12.1875 C 6.082031 -10.644531 8.171875 -9.378906 10.578125 -8.390625 C 12.984375 -7.410156 15.125 -6.921875 17 -6.921875 C 18.425781 -6.921875 19.539062 -7.175781 20.34375 -7.6875 C 21.144531 -8.207031 21.546875 -8.96875 21.546875 -9.96875 C 21.546875 -10.9375 21.085938 -11.75 20.171875 -12.40625 C 19.253906 -13.0625 18.109375 -13.546875 16.734375 -13.859375 C 15.367188 -14.171875 13.882812 -14.59375 12.28125 -15.125 C 10.675781 -15.664062 9.1875 -16.253906 7.8125 -16.890625 C 6.445312 -17.523438 5.300781 -18.535156 4.375 -19.921875 C 3.457031 -21.304688 3 -22.96875 3 -24.90625 C 3 -28.113281 4.273438 -30.675781 6.828125 -32.59375 C 9.390625 -34.519531 12.78125 -35.484375 17 -35.484375 Z M 17 -35.484375 "/></g></g></g><g fill="#1f2d38" fill-opacity="1"><g transform="translate(145.890016, 305.302637)"><g><path d="M 30.984375 -28.0625 L 12.4375 -28.0625 L 12.4375 -21.109375 L 29.171875 -21.109375 L 29.171875 -14.078125 L 12.4375 -14.078125 L 12.4375 -7.015625 L 31.53125 -7.015625 L 31.53125 0 L 3.515625 0 L 3.515625 -35.09375 L 30.984375 -35.09375 Z M 30.984375 -28.0625 "/></g></g></g><g fill="#1f2d38" fill-opacity="1"><g transform="translate(182.524125, 305.302637)"><g><path d="M 26.8125 -6.46875 L 11.484375 -6.46875 L 8.921875 0 L -0.25 0 L 14.890625 -35.09375 L 24.0625 -35.09375 L 38.84375 0 L 29.328125 0 Z M 24.203125 -13.234375 L 19.203125 -26.21875 L 14.078125 -13.234375 Z M 24.203125 -13.234375 "/></g></g></g><g fill="#1f2d38" fill-opacity="1"><g transform="translate(223.969142, 305.302637)"><g><path d="M 24.65625 0 L 19.453125 -9.875 L 12.4375 -9.875 L 12.4375 0 L 3.515625 0 L 3.515625 -35.09375 L 19.203125 -35.09375 C 23.847656 -35.09375 27.4375 -34.03125 29.96875 -31.90625 C 32.507812 -29.78125 33.78125 -26.765625 33.78125 -22.859375 C 33.78125 -17.441406 31.660156 -13.679688 27.421875 -11.578125 L 34.78125 0 Z M 12.4375 -16.890625 L 19.203125 -16.890625 C 21.140625 -16.890625 22.640625 -17.375 23.703125 -18.34375 C 24.773438 -19.3125 25.3125 -20.71875 25.3125 -22.5625 C 25.3125 -24.363281 24.773438 -25.726562 23.703125 -26.65625 C 22.640625 -27.59375 21.140625 -28.0625 19.203125 -28.0625 L 12.4375 -28.0625 Z M 12.4375 -16.890625 "/></g></g></g><g fill="#1f2d38" fill-opacity="1"><g transform="translate(263.108925, 305.302637)"><g><path d="M 19.953125 -35.390625 C 22.554688 -35.390625 25.117188 -34.851562 27.640625 -33.78125 C 30.160156 -32.71875 32.304688 -31.28125 34.078125 -29.46875 L 28.921875 -23.359375 C 27.785156 -24.765625 26.421875 -25.875 24.828125 -26.6875 C 23.242188 -27.507812 21.664062 -27.921875 20.09375 -27.921875 C 17.320312 -27.921875 15 -26.941406 13.125 -24.984375 C 11.257812 -23.035156 10.328125 -20.625 10.328125 -17.75 C 10.328125 -14.800781 11.257812 -12.34375 13.125 -10.375 C 15 -8.40625 17.320312 -7.421875 20.09375 -7.421875 C 21.570312 -7.421875 23.101562 -7.785156 24.6875 -8.515625 C 26.269531 -9.253906 27.679688 -10.257812 28.921875 -11.53125 L 34.140625 -6.015625 C 32.234375 -4.078125 29.984375 -2.519531 27.390625 -1.34375 C 24.804688 -0.175781 22.226562 0.40625 19.65625 0.40625 C 14.375 0.40625 9.976562 -1.3125 6.46875 -4.75 C 2.957031 -8.195312 1.203125 -12.492188 1.203125 -17.640625 C 1.203125 -22.691406 2.988281 -26.910156 6.5625 -30.296875 C 10.144531 -33.691406 14.609375 -35.390625 19.953125 -35.390625 Z M 19.953125 -35.390625 "/></g></g></g><g fill="#1f2d38" fill-opacity="1"><g transform="translate(300.645085, 305.302637)"><g><path d="M 35.890625 0 L 26.96875 0 L 26.96875 -13.640625 L 12.4375 -13.640625 L 12.4375 0 L 3.515625 0 L 3.515625 -35.09375 L 12.4375 -35.09375 L 12.4375 -20.65625 L 26.96875 -20.65625 L 26.96875 -35.09375 L 35.890625 -35.09375 Z M 35.890625 0 "/></g></g></g><g fill="#e0e3e6" fill-opacity="1"><g transform="translate(163.141876, 140.049252)"><g><path d="M 11.585938 -0.21875 C 11.695312 0.21875 12.128906 0.542969 12.566406 0.542969 L 13.4375 0.542969 C 13.816406 0.542969 14.199219 0.273438 14.359375 -0.0546875 L 24.261719 -22.304688 L 24.425781 -22.304688 L 34.378906 -0.0546875 C 34.542969 0.273438 34.921875 0.542969 35.304688 0.542969 L 36.175781 0.542969 C 36.609375 0.542969 37.046875 0.21875 37.152344 -0.21875 L 47.433594 -36.773438 C 47.652344 -37.535156 47.21875 -38.078125 46.457031 -38.078125 L 40.089844 -38.078125 C 39.65625 -38.078125 39.222656 -37.699219 39.113281 -37.316406 L 34.433594 -18.875 L 34.214844 -18.875 L 25.785156 -38.023438 C 25.675781 -38.351562 25.351562 -38.621094 24.859375 -38.621094 L 23.882812 -38.621094 C 23.445312 -38.621094 23.121094 -38.351562 22.957031 -38.023438 L 14.523438 -18.875 L 14.308594 -18.875 L 9.628906 -37.316406 C 9.519531 -37.699219 9.085938 -38.078125 8.648438 -38.078125 L 2.285156 -38.078125 C 1.523438 -38.078125 1.089844 -37.535156 1.304688 -36.773438 Z M 11.585938 -0.21875 "/></g></g></g></svg>