<svg xmlns="http://www.w3.org/2000/svg" xmlns:xlink="http://www.w3.org/1999/xlink" width="500" zoomAndPan="magnify" viewBox="0 0 375 374.999991" height="500" preserveAspectRatio="xMidYMid meet" version="1.0"><defs><g/><clipPath id="id1"><path d="M 117.546875 142 L 257.859375 142 L 257.859375 180.722656 L 117.546875 180.722656 Z M 117.546875 142 " clip-rule="nonzero"/></clipPath><clipPath id="id2"><path d="M 117.546875 91.089844 L 257.859375 91.089844 L 257.859375 129 L 117.546875 129 Z M 117.546875 91.089844 " clip-rule="nonzero"/></clipPath></defs><rect x="-37.5" width="450" fill="#ffffff" y="-37.499999" height="449.999989" fill-opacity="1"/><rect x="-37.5" width="450" fill="#ffffff" y="-37.499999" height="449.999989" fill-opacity="1"/><rect x="-37.5" width="450" fill="#ffffff" y="-37.499999" height="449.999989" fill-opacity="1"/><rect x="-37.5" width="450" fill="#ffffff" y="-37.499999" height="449.999989" fill-opacity="1"/><path fill="#1f2d38" d="M 171.902344 148.882812 C 169.320312 148.890625 167.222656 146.824219 167.210938 144.265625 C 167.203125 141.703125 169.285156 139.617188 171.867188 139.609375 C 174.449219 139.597656 176.546875 141.667969 176.558594 144.226562 C 176.570312 146.789062 174.484375 148.875 171.902344 148.882812 Z M 214.109375 129.652344 C 213.058594 131.683594 210.933594 133.074219 208.480469 133.085938 C 204.964844 133.097656 202.105469 130.28125 202.089844 126.792969 C 202.078125 123.304688 204.914062 120.46875 208.429688 120.453125 C 209.007812 120.453125 209.566406 120.535156 210.101562 120.675781 C 205.191406 113.570312 196.933594 108.921875 187.597656 108.960938 C 172.601562 109.015625 160.496094 121.128906 160.554688 136.007812 C 160.613281 150.886719 172.816406 162.902344 187.808594 162.84375 C 202.804688 162.785156 214.910156 150.675781 214.851562 135.796875 C 214.84375 133.683594 214.582031 131.628906 214.109375 129.652344 " fill-opacity="1" fill-rule="nonzero"/><g clip-path="url(#id1)"><path fill="#1c5a81" d="M 187.703125 166.484375 C 166.125 166.484375 146.824219 150.824219 138.519531 142.992188 L 117.585938 142.992188 L 121.394531 147.34375 C 122.589844 148.707031 151.066406 180.726562 187.703125 180.726562 C 224.339844 180.726562 252.816406 148.707031 254.011719 147.34375 L 257.820312 142.992188 L 236.886719 142.992188 C 228.578125 150.828125 209.277344 166.484375 187.703125 166.484375 " fill-opacity="1" fill-rule="nonzero"/></g><g clip-path="url(#id2)"><path fill="#2880b8" d="M 187.703125 91.078125 C 151.066406 91.078125 122.589844 123.097656 121.394531 124.460938 L 117.585938 128.808594 L 138.519531 128.808594 L 138.511719 128.800781 C 146.785156 120.964844 166.023438 105.320312 187.703125 105.320312 C 209.277344 105.320312 228.578125 120.972656 236.886719 128.808594 L 257.820312 128.808594 L 254.011719 124.460938 C 252.816406 123.097656 224.339844 91.078125 187.703125 91.078125 " fill-opacity="1" fill-rule="nonzero"/></g><g fill="#1f2d38" fill-opacity="1"><g transform="translate(80.721652, 231.292348)"><g><path d="M 15 -26.625 C 16.96875 -26.625 18.898438 -26.21875 20.796875 -25.40625 C 22.691406 -24.601562 24.304688 -23.523438 25.640625 -22.171875 L 21.75 -17.5625 C 20.894531 -18.625 19.867188 -19.460938 18.671875 -20.078125 C 17.484375 -20.691406 16.300781 -21 15.125 -21 C 13.03125 -21 11.28125 -20.265625 9.875 -18.796875 C 8.46875 -17.328125 7.765625 -15.507812 7.765625 -13.34375 C 7.765625 -11.132812 8.46875 -9.285156 9.875 -7.796875 C 11.28125 -6.316406 13.03125 -5.578125 15.125 -5.578125 C 16.226562 -5.578125 17.375 -5.851562 18.5625 -6.40625 C 19.757812 -6.957031 20.820312 -7.710938 21.75 -8.671875 L 25.671875 -4.53125 C 24.242188 -3.070312 22.554688 -1.898438 20.609375 -1.015625 C 18.660156 -0.140625 16.71875 0.296875 14.78125 0.296875 C 10.8125 0.296875 7.503906 -0.992188 4.859375 -3.578125 C 2.222656 -6.171875 0.90625 -9.398438 0.90625 -13.265625 C 0.90625 -17.066406 2.25 -20.242188 4.9375 -22.796875 C 7.625 -25.347656 10.976562 -26.625 15 -26.625 Z M 15 -26.625 "/></g></g></g><g fill="#1f2d38" fill-opacity="1"><g transform="translate(108.957402, 231.292348)"><g><path d="M 15.15625 -26.625 C 19.25 -26.625 22.65625 -25.347656 25.375 -22.796875 C 28.09375 -20.242188 29.453125 -17.054688 29.453125 -13.234375 C 29.453125 -9.390625 28.085938 -6.171875 25.359375 -3.578125 C 22.628906 -0.992188 19.226562 0.296875 15.15625 0.296875 C 11.082031 0.296875 7.6875 -0.988281 4.96875 -3.5625 C 2.257812 -6.132812 0.90625 -9.359375 0.90625 -13.234375 C 0.90625 -17.078125 2.257812 -20.269531 4.96875 -22.8125 C 7.6875 -25.351562 11.082031 -26.625 15.15625 -26.625 Z M 15.234375 -21 C 13.171875 -21 11.410156 -20.25 9.953125 -18.75 C 8.492188 -17.257812 7.765625 -15.40625 7.765625 -13.1875 C 7.765625 -10.976562 8.5 -9.113281 9.96875 -7.59375 C 11.4375 -6.070312 13.1875 -5.3125 15.21875 -5.3125 C 17.257812 -5.3125 18.988281 -6.070312 20.40625 -7.59375 C 21.832031 -9.113281 22.546875 -10.976562 22.546875 -13.1875 C 22.546875 -15.40625 21.832031 -17.257812 20.40625 -18.75 C 18.988281 -20.25 17.265625 -21 15.234375 -21 Z M 15.234375 -21 "/></g></g></g><g fill="#1f2d38" fill-opacity="1"><g transform="translate(141.452896, 231.292348)"><g><path d="M 31.640625 0 L 25.71875 0 L 25.671875 -17.15625 L 19.34375 -2.640625 L 14.96875 -2.640625 L 8.640625 -17.15625 L 8.640625 0 L 2.640625 0 L 2.640625 -26.4375 L 9.984375 -26.4375 L 17.15625 -10.703125 L 24.3125 -26.4375 L 31.640625 -26.4375 Z M 31.640625 0 "/></g></g></g><g fill="#1f2d38" fill-opacity="1"><g transform="translate(177.90655, 231.292348)"><g><path d="M 2.640625 -26.390625 L 14.140625 -26.390625 C 17.503906 -26.390625 20.113281 -25.59375 21.96875 -24 C 23.832031 -22.40625 24.765625 -20.132812 24.765625 -17.1875 C 24.765625 -14.101562 23.832031 -11.703125 21.96875 -9.984375 C 20.113281 -8.273438 17.503906 -7.421875 14.140625 -7.421875 L 9.34375 -7.421875 L 9.34375 0 L 2.640625 0 Z M 9.34375 -21.109375 L 9.34375 -12.703125 L 13.796875 -12.703125 C 15.285156 -12.703125 16.429688 -13.066406 17.234375 -13.796875 C 18.035156 -14.523438 18.4375 -15.582031 18.4375 -16.96875 C 18.4375 -18.320312 18.035156 -19.347656 17.234375 -20.046875 C 16.429688 -20.753906 15.285156 -21.109375 13.796875 -21.109375 Z M 9.34375 -21.109375 "/></g></g></g><g fill="#1f2d38" fill-opacity="1"><g transform="translate(205.68994, 231.292348)"><g><path d="M 20.171875 -4.859375 L 8.640625 -4.859375 L 6.71875 0 L -0.1875 0 L 11.203125 -26.390625 L 18.09375 -26.390625 L 29.21875 0 L 22.0625 0 Z M 18.203125 -9.953125 L 14.4375 -19.71875 L 10.59375 -9.953125 Z M 18.203125 -9.953125 "/></g></g></g><g fill="#1f2d38" fill-opacity="1"><g transform="translate(236.866042, 231.292348)"><g><path d="M 27 0 L 21.078125 0 L 8.9375 -16.25 L 8.9375 0 L 2.640625 0 L 2.640625 -26.390625 L 8.5625 -26.390625 L 20.734375 -10.109375 L 20.734375 -26.390625 L 27 -26.390625 Z M 27 0 "/></g></g></g><g fill="#1f2d38" fill-opacity="1"><g transform="translate(268.645297, 231.292348)"><g><path d="M 16.25 -8.515625 L 16.25 0 L 9.578125 0 L 9.578125 -8.328125 L -0.1875 -26.390625 L 6.515625 -26.390625 L 12.890625 -14.890625 L 19.109375 -26.390625 L 25.828125 -26.390625 Z M 16.25 -8.515625 "/></g></g></g><g fill="#1f2d38" fill-opacity="1"><g transform="translate(296.427913, 231.292348)"><g/></g></g><g fill="#1f2d38" fill-opacity="1"><g transform="translate(72.774259, 276.114428)"><g><path d="M 18.546875 0 L 14.625 -7.421875 L 9.34375 -7.421875 L 9.34375 0 L 2.640625 0 L 2.640625 -26.390625 L 14.4375 -26.390625 C 17.9375 -26.390625 20.640625 -25.59375 22.546875 -24 C 24.453125 -22.40625 25.40625 -20.132812 25.40625 -17.1875 C 25.40625 -13.113281 23.8125 -10.285156 20.625 -8.703125 L 26.171875 0 Z M 9.34375 -12.703125 L 14.4375 -12.703125 C 15.894531 -12.703125 17.023438 -13.066406 17.828125 -13.796875 C 18.640625 -14.523438 19.046875 -15.582031 19.046875 -16.96875 C 19.046875 -18.320312 18.640625 -19.347656 17.828125 -20.046875 C 17.023438 -20.753906 15.894531 -21.109375 14.4375 -21.109375 L 9.34375 -21.109375 Z M 9.34375 -12.703125 "/></g></g></g><g fill="#1f2d38" fill-opacity="1"><g transform="translate(102.2163, 276.114428)"><g><path d="M 23.296875 -21.109375 L 9.34375 -21.109375 L 9.34375 -15.875 L 21.9375 -15.875 L 21.9375 -10.59375 L 9.34375 -10.59375 L 9.34375 -5.28125 L 23.71875 -5.28125 L 23.71875 0 L 2.640625 0 L 2.640625 -26.390625 L 23.296875 -26.390625 Z M 23.296875 -21.109375 "/></g></g></g><g fill="#1f2d38" fill-opacity="1"><g transform="translate(129.773502, 276.114428)"><g><path d="M 12.78125 -26.6875 C 16.726562 -26.6875 20.195312 -25.707031 23.1875 -23.75 L 20.65625 -18.515625 C 19.28125 -19.316406 17.800781 -19.972656 16.21875 -20.484375 C 14.632812 -21.003906 13.300781 -21.265625 12.21875 -21.265625 C 10.28125 -21.265625 9.3125 -20.625 9.3125 -19.34375 C 9.3125 -18.507812 9.785156 -17.84375 10.734375 -17.34375 C 11.691406 -16.84375 12.851562 -16.410156 14.21875 -16.046875 C 15.59375 -15.679688 16.960938 -15.238281 18.328125 -14.71875 C 19.703125 -14.207031 20.867188 -13.375 21.828125 -12.21875 C 22.785156 -11.0625 23.265625 -9.601562 23.265625 -7.84375 C 23.265625 -5.300781 22.269531 -3.320312 20.28125 -1.90625 C 18.300781 -0.488281 15.773438 0.21875 12.703125 0.21875 C 10.515625 0.21875 8.351562 -0.15625 6.21875 -0.90625 C 4.082031 -1.65625 2.222656 -2.6875 0.640625 -4 L 3.25 -9.15625 C 4.570312 -8 6.140625 -7.050781 7.953125 -6.3125 C 9.765625 -5.570312 11.375 -5.203125 12.78125 -5.203125 C 13.863281 -5.203125 14.707031 -5.394531 15.3125 -5.78125 C 15.914062 -6.175781 16.21875 -6.75 16.21875 -7.5 C 16.21875 -8.226562 15.867188 -8.835938 15.171875 -9.328125 C 14.484375 -9.816406 13.625 -10.179688 12.59375 -10.421875 C 11.5625 -10.660156 10.441406 -10.976562 9.234375 -11.375 C 8.023438 -11.78125 6.90625 -12.222656 5.875 -12.703125 C 4.84375 -13.179688 3.984375 -13.941406 3.296875 -14.984375 C 2.609375 -16.023438 2.265625 -17.273438 2.265625 -18.734375 C 2.265625 -21.148438 3.222656 -23.078125 5.140625 -24.515625 C 7.066406 -25.960938 9.613281 -26.6875 12.78125 -26.6875 Z M 12.78125 -26.6875 "/></g></g></g><g fill="#1f2d38" fill-opacity="1"><g transform="translate(156.199811, 276.114428)"><g><path d="M 23.296875 -21.109375 L 9.34375 -21.109375 L 9.34375 -15.875 L 21.9375 -15.875 L 21.9375 -10.59375 L 9.34375 -10.59375 L 9.34375 -5.28125 L 23.71875 -5.28125 L 23.71875 0 L 2.640625 0 L 2.640625 -26.390625 L 23.296875 -26.390625 Z M 23.296875 -21.109375 "/></g></g></g><g fill="#1f2d38" fill-opacity="1"><g transform="translate(183.757013, 276.114428)"><g><path d="M 20.171875 -4.859375 L 8.640625 -4.859375 L 6.71875 0 L -0.1875 0 L 11.203125 -26.390625 L 18.09375 -26.390625 L 29.21875 0 L 22.0625 0 Z M 18.203125 -9.953125 L 14.4375 -19.71875 L 10.59375 -9.953125 Z M 18.203125 -9.953125 "/></g></g></g><g fill="#1f2d38" fill-opacity="1"><g transform="translate(214.933115, 276.114428)"><g><path d="M 18.546875 0 L 14.625 -7.421875 L 9.34375 -7.421875 L 9.34375 0 L 2.640625 0 L 2.640625 -26.390625 L 14.4375 -26.390625 C 17.9375 -26.390625 20.640625 -25.59375 22.546875 -24 C 24.453125 -22.40625 25.40625 -20.132812 25.40625 -17.1875 C 25.40625 -13.113281 23.8125 -10.285156 20.625 -8.703125 L 26.171875 0 Z M 9.34375 -12.703125 L 14.4375 -12.703125 C 15.894531 -12.703125 17.023438 -13.066406 17.828125 -13.796875 C 18.640625 -14.523438 19.046875 -15.582031 19.046875 -16.96875 C 19.046875 -18.320312 18.640625 -19.347656 17.828125 -20.046875 C 17.023438 -20.753906 15.894531 -21.109375 14.4375 -21.109375 L 9.34375 -21.109375 Z M 9.34375 -12.703125 "/></g></g></g><g fill="#1f2d38" fill-opacity="1"><g transform="translate(244.375156, 276.114428)"><g><path d="M 15 -26.625 C 16.96875 -26.625 18.898438 -26.21875 20.796875 -25.40625 C 22.691406 -24.601562 24.304688 -23.523438 25.640625 -22.171875 L 21.75 -17.5625 C 20.894531 -18.625 19.867188 -19.460938 18.671875 -20.078125 C 17.484375 -20.691406 16.300781 -21 15.125 -21 C 13.03125 -21 11.28125 -20.265625 9.875 -18.796875 C 8.46875 -17.328125 7.765625 -15.507812 7.765625 -13.34375 C 7.765625 -11.132812 8.46875 -9.285156 9.875 -7.796875 C 11.28125 -6.316406 13.03125 -5.578125 15.125 -5.578125 C 16.226562 -5.578125 17.375 -5.851562 18.5625 -6.40625 C 19.757812 -6.957031 20.820312 -7.710938 21.75 -8.671875 L 25.671875 -4.53125 C 24.242188 -3.070312 22.554688 -1.898438 20.609375 -1.015625 C 18.660156 -0.140625 16.71875 0.296875 14.78125 0.296875 C 10.8125 0.296875 7.503906 -0.992188 4.859375 -3.578125 C 2.222656 -6.171875 0.90625 -9.398438 0.90625 -13.265625 C 0.90625 -17.066406 2.25 -20.242188 4.9375 -22.796875 C 7.625 -25.347656 10.976562 -26.625 15 -26.625 Z M 15 -26.625 "/></g></g></g><g fill="#1f2d38" fill-opacity="1"><g transform="translate(272.610907, 276.114428)"><g><path d="M 27 0 L 20.28125 0 L 20.28125 -10.25 L 9.34375 -10.25 L 9.34375 0 L 2.640625 0 L 2.640625 -26.390625 L 9.34375 -26.390625 L 9.34375 -15.53125 L 20.28125 -15.53125 L 20.28125 -26.390625 L 27 -26.390625 Z M 27 0 "/></g></g></g><g fill="#e0e3e6" fill-opacity="1"><g transform="translate(169.177128, 151.806223)"><g><path d="M 8.714844 -0.164062 C 8.796875 0.164062 9.125 0.410156 9.453125 0.410156 L 10.105469 0.410156 C 10.394531 0.410156 10.679688 0.203125 10.804688 -0.0390625 L 18.25 -16.777344 L 18.375 -16.777344 L 25.863281 -0.0390625 C 25.984375 0.203125 26.269531 0.410156 26.558594 0.410156 L 27.210938 0.410156 C 27.539062 0.410156 27.867188 0.164062 27.949219 -0.164062 L 35.683594 -27.660156 C 35.847656 -28.234375 35.519531 -28.644531 34.945312 -28.644531 L 30.15625 -28.644531 C 29.832031 -28.644531 29.503906 -28.359375 29.421875 -28.070312 L 25.902344 -14.199219 L 25.738281 -14.199219 L 19.394531 -28.601562 C 19.3125 -28.847656 19.070312 -29.054688 18.699219 -29.054688 L 17.964844 -29.054688 C 17.636719 -29.054688 17.390625 -28.847656 17.269531 -28.601562 L 10.925781 -14.199219 L 10.761719 -14.199219 L 7.242188 -28.070312 C 7.160156 -28.359375 6.832031 -28.644531 6.507812 -28.644531 L 1.71875 -28.644531 C 1.144531 -28.644531 0.820312 -28.234375 0.980469 -27.660156 Z M 8.714844 -0.164062 "/></g></g></g></svg>