<svg preserveAspectRatio="xMidYMid meet" data-bbox="78.38 24.33 403.834 304.99" viewBox="78.38 24.33 403.834 304.99" xmlns="http://www.w3.org/2000/svg" data-type="color" role="presentation" aria-hidden="true">
    <g>
        <path d="M269.51 178c.21-8.64.43-17.29 1.43-25.87 1.09-9.4 4.49-18.86 5-28.24.45-8.55 2-16.62 3.73-25.12C282.85 82.9 286 67.05 290 51.38c1.93-7.62 3.48-16.06 6.59-23.3 2.54-5.9 6.05-4.48 6.15 1.76.32 18.66.63 37.34.19 56-.41 17.22-3.68 33.85-3.37 51.31.26 14.61 1.89 29.36-.6 43.76-1.87 10.77-6 21-10.22 31.09-.89 2.13-1.94 4.42-4 5.48s-4.31.64-6.39 0c-7-2.25-10.27-7.46-9.93-14.6.41-8.3.88-16.6 1.09-24.88z" fill="#3AC5AF" data-color="1"></path>
        <path d="M334.75 105.4q8.85-14.4 16.4-29.56c2.17.93 1.86 4.07 1.17 6.32-7.84 25.75-15.3 51.39-22.13 77.26-.94 2.61-3.08 5.76-5.7 4.83-7.62-2.7-8.82-14.71-7.89-21.34 1.79-12.7 9.53-23.76 16.19-34.36.66-1.05 1.31-2.1 1.96-3.15z" fill="#3AC5AF" data-color="1"></path>
        <path d="M319.88 286.92a151.43 151.43 0 0167.22-22.87 156.17 156.17 0 0166.54 8.43 242.48 242.48 0 0123 9.64c-4-4-8.14-7.91-11.59-12.32-4.64-5.91-8.9-10.7-15.32-15a87.57 87.57 0 00-44.6-14.56c-26.39-1.22-52.51 8.65-73.95 24.1a193.59 193.59 0 00-24.79 21.14c-7.16 7.22-15.84 15.39-19.23 25.07a13.28 13.28 0 00-.82 3.37c11.06-9.14 21.48-19.29 33.54-27z" fill="#3AC5AF" data-color="1"></path>
        <path d="M439 269.79c-24.65-6.57-51.11-5.64-75.55 1.39-21.67 6.24-40.74 17.39-57.77 32-5.88 5.05-11.65 10.22-17.66 15a7 7 0 001.92 1.4c6.5 3.06 13.86-3.08 19.72-5.36 10.39-4.06 20.78-8.1 31.25-11.95 9.26-3.41 18.52-8 28.16-9.83a437.2 437.2 0 0165.76-7c9.43-.31 18.95-.33 28.28 1.2a119.69 119.69 0 0113.1 3.34c1.5.43 7.42 2.48 5.69-2a4.62 4.62 0 00-.94-1.35l-1.48-.73c-13.05-6.47-26.43-12.36-40.48-16.11z" fill="#3AC5AF" data-color="1"></path>
        <path d="M242.1 316.09C222.3 296.4 195 285 170.2 272.1c-17.35-9-34.44-18.72-52.66-25.92A216.49 216.49 0 0083 235.87c-1.54 0-3.08.06-4.62.16v.11c.12.51.69.74 1.18.91 19.85 6.42 39.14 12.37 57.63 22.2a318.44 318.44 0 0151.34 34.06c11.16 9.08 44.53 43.94 61.72 34.36-2.81-3.78-5.47-7.67-8.15-11.58z" fill="#3AC5AF" data-color="1"></path>
        <path d="M125.64 247.55A131.36 131.36 0 0098 237.62c9.41 2.83 18.58 6.18 27.64 9.93z" fill="#3AC5AF" data-color="1"></path>
        <path d="M161.05 262.59c20.66 10.41 46.12 13.64 64.49 28.14 8.61 6.79 14.94 15.64 21.14 24.62a101.5 101.5 0 017.8 8.74c8.82-10.84.65-29.27-5.31-39.49a41.74 41.74 0 00-13.39-13.6c-8.17-5.44-17.85-9.18-26.37-13.26q-25.36-12.15-51.27-23.2c-23-9.8-48.28-16.83-72.09-5.42a19.78 19.78 0 00-5.76 3.88c28.19 0 55.98 17.1 80.76 29.59z" fill="#3AC5AF" data-color="1"></path>
        <path d="M179.86 273.76c18.16 9.12 37.12 18 53.33 30.06a84.73 84.73 0 00-8.13-8.93c-12.44-11.69-29.34-15.61-45.2-21.13z" fill="#3AC5AF" data-color="1"></path>
        <path d="M368.38 168.84a480.56 480.56 0 0166.46-73.34 3.85 3.85 0 00-2.86-.41 9.9 9.9 0 00-3.75 2.25L386.11 132c-8.5 7-17 14-25.05 21.52-7.28 6.82-13.55 14.12-21.44 20.05-16 12.06-27.77 30.26-37.24 47.63-6.22 11.4-11.68 23.18-17.3 34.88-1.69 3.51-11.54 17.44-9.08 23a645.47 645.47 0 0050.76-54.09c14.87-17.93 27.82-37.34 41.62-56.15z" fill="#3AC5AF" data-color="1"></path>
        <path d="M281.38 281.46c3-.31 5.69-2.31 8.12-4.22l37.82-29.7c23.32-18.31 38-45.63 54.31-70.2 15.58-23.52 31-47.17 48.08-69.67A497.91 497.91 0 00367 179.58c-26.21 36.52-53.52 70.5-85.62 101.88z" fill="#3AC5AF" data-color="1"></path>
        <path d="M228.34 237.77c-17.44-11.09-24.67-27.28-33.2-45.34a882.74 882.74 0 00-53.83-97.3c1.92 4.62 4.47 9 6.8 13.39 12.53 23.79 16.15 51.48 28.71 75.26 10.52 19.91 26.78 36.08 42.78 51.92l28.89 28.58c1.66 1.65 3.53 3.39 5.85 3.55s4.5-1.26 6.52-3.51c-7.94-10.83-19.55-18.32-32.52-26.55z" fill="#3AC5AF" data-color="1"></path>
        <path d="M218.09 225.16c7.53 9 18.1 14.18 27.85 20.29a71.12 71.12 0 0117.61 15.24c3.61-5.79 6.07-13.61 6.05-17.53-.07-14-12.13-22.14-21-31-15.83-16-23.74-38-36.5-56.58-13.61-19.77-32.49-35.19-50.1-51.51-4.1-3.79-8.15-7.66-12-11.75-1.88-2-5.38-8.37-8.86-8.45a2.17 2.17 0 00-1.67.57 890.53 890.53 0 0162.75 112.13c4.67 9.77 8.84 20.2 15.87 28.59z" fill="#3AC5AF" data-color="1"></path>
    </g>
</svg>