<?xml version="1.0" standalone="no"?>
<!DOCTYPE svg PUBLIC "-//W3C//DTD SVG 20010904//EN"
 "http://www.w3.org/TR/2001/REC-SVG-20010904/DTD/svg10.dtd">
<svg version="1.0" xmlns="http://www.w3.org/2000/svg"
 width="1920.000000pt" height="2329.000000pt" viewBox="0 0 1920.000000 2329.000000"
 preserveAspectRatio="xMidYMid meet">

<g transform="translate(0.000000,2329.000000) scale(0.100000,-0.100000)"
fill="#000000" stroke="none">
<path d="M9720 20873 c-569 -31 -1007 -132 -1490 -345 -622 -274 -1209 -753
-1592 -1300 -43 -61 -78 -119 -78 -129 0 -54 54 -98 104 -85 16 4 51 44 105
121 242 342 590 681 946 921 481 324 1018 533 1580 613 230 33 405 44 690 44
290 0 460 -14 723 -58 1114 -189 2150 -831 2857 -1770 514 -683 821 -1472 900
-2313 9 -96 14 -176 11 -179 -2 -3 -20 26 -39 63 -46 90 -145 241 -217 329
-70 85 -243 254 -325 316 -275 211 -591 348 -943 411 -170 30 -529 33 -693 5
-1122 -189 -1867 -1154 -1703 -2208 l15 -96 -43 -69 c-249 -408 -383 -1118
-364 -1934 3 -151 13 -351 21 -445 51 -596 67 -838 69 -1050 l1 -230 -30 -54
c-77 -139 -224 -186 -357 -114 -65 35 -115 92 -227 257 -96 140 -168 217 -226
242 -48 20 -141 18 -190 -5 -70 -32 -141 -97 -243 -224 -128 -158 -202 -221
-284 -241 -90 -21 -199 118 -262 336 -35 121 -48 226 -48 373 0 151 4 193 82
945 117 1117 179 1936 167 2195 -12 252 -75 497 -187 725 -109 220 -217 367
-407 550 -172 167 -370 301 -582 395 -716 317 -1554 223 -2173 -246 -108 -82
-298 -272 -376 -376 -524 -697 -518 -1607 17 -2293 397 -511 1071 -816 1736
-786 229 10 417 45 631 120 439 153 827 461 1067 847 49 80 57 88 57 63 0 -54
-60 -682 -115 -1204 -95 -897 -100 -999 -59 -1210 58 -307 198 -541 349 -585
159 -47 315 37 496 267 114 145 186 208 236 208 37 0 86 -53 184 -197 111
-162 174 -234 251 -284 239 -154 553 -36 639 242 34 110 26 380 -32 1079 -44
531 -53 789 -40 1075 22 474 77 819 179 1115 42 123 110 280 122 280 4 0 19
-33 35 -72 63 -166 180 -359 315 -521 383 -458 990 -737 1608 -737 701 0 1368
347 1744 909 38 57 85 135 104 173 20 39 37 68 39 66 5 -5 -21 -787 -40 -1188
-34 -718 -87 -1536 -146 -2230 -16 -195 -34 -416 -39 -490 -12 -157 -21 -218
-57 -355 -53 -206 -140 -397 -263 -582 -197 -297 -461 -523 -820 -703 -237
-119 -394 -155 -635 -147 -247 8 -483 68 -800 203 -155 66 -212 94 -825 406
-592 300 -855 388 -1165 390 -459 1 -982 -261 -1314 -659 -178 -213 -304 -449
-325 -613 -12 -89 73 -351 177 -542 83 -155 172 -274 307 -409 260 -261 564
-414 965 -485 485 -86 1135 24 1604 272 290 153 506 361 594 570 91 216 -11
379 -285 454 -243 66 -451 77 -1125 59 -638 -17 -1548 -18 -1758 -1 -165 13
-285 30 -306 43 -38 23 59 250 179 418 223 313 545 551 897 664 340 109 605
86 1025 -87 136 -57 231 -103 840 -413 369 -187 513 -251 730 -323 544 -181
927 -153 1385 101 347 192 597 417 795 717 198 298 312 630 340 989 5 70 23
288 40 483 48 565 92 1222 135 1995 42 754 59 1438 60 2300 0 890 -2 928 -60
1285 -298 1820 -1710 3364 -3490 3818 -446 114 -917 160 -1375 135z m3180
-3518 c437 -71 808 -266 1109 -581 215 -225 366 -506 437 -814 27 -119 51
-375 40 -434 l-7 -39 -51 79 c-196 307 -500 571 -848 738 -689 330 -1509 293
-2159 -96 -264 -159 -512 -398 -666 -642 l-50 -79 -5 49 c-8 79 7 281 29 391
119 581 535 1070 1112 1304 146 59 345 113 479 128 52 6 109 13 125 15 61 9
363 -4 455 -19z m-15 -1011 c638 -85 1187 -454 1476 -988 l41 -76 -1806 0
c-1451 0 -1806 2 -1806 13 0 20 124 223 185 303 175 228 397 409 665 544 389
195 805 263 1245 204z m-5917 -82 c281 -62 526 -188 706 -365 138 -136 227
-283 282 -462 26 -84 28 -102 28 -270 0 -209 -13 -271 -88 -431 -86 -180 -211
-335 -370 -458 -106 -81 -144 -105 -262 -164 -763 -382 -1739 -95 -2015 593
-53 134 -72 248 -66 405 12 292 127 533 363 760 221 213 516 353 849 405 133
21 450 13 573 -13z m7442 -1156 c0 -28 -53 -162 -106 -267 -318 -636 -1024
-1045 -1765 -1023 -719 21 -1370 426 -1670 1039 -43 88 -99 233 -99 257 0 4
819 8 1820 8 1578 0 1820 -2 1820 -14z m-5950 -6517 c197 -18 944 -22 1511 -8
664 17 980 16 1154 -5 295 -35 441 -102 438 -202 -2 -79 -120 -258 -235 -356
-268 -229 -655 -390 -1115 -464 -134 -22 -457 -30 -580 -15 -590 72 -1033 363
-1276 838 -51 101 -97 207 -97 226 0 5 21 6 48 3 26 -4 94 -11 152 -17z"/>
<path d="M6620 16004 c-515 -65 -938 -366 -1073 -762 -38 -114 -48 -272 -23
-384 83 -375 470 -628 960 -628 667 0 1257 469 1256 999 0 187 -60 336 -188
473 -139 147 -303 235 -532 284 -73 15 -328 27 -400 18z m376 -179 c296 -62
508 -236 568 -471 76 -293 -126 -629 -492 -817 -572 -296 -1267 -121 -1387
348 -101 396 309 846 855 939 52 9 109 18 125 20 57 8 252 -3 331 -19z"/>
<path d="M6563 15556 c-104 -34 -194 -114 -241 -214 -24 -50 -27 -69 -26 -157
0 -89 3 -106 29 -159 115 -235 411 -294 604 -120 98 88 143 227 116 355 -18
86 -43 135 -100 193 -67 70 -158 109 -260 113 -49 2 -96 -2 -122 -11z"/>
<path d="M6435 18262 c-76 -26 -138 -66 -186 -120 -130 -144 -155 -343 -66
-519 27 -53 333 -398 354 -398 13 0 343 297 370 333 132 179 122 427 -24 583
-57 61 -122 103 -192 123 -72 21 -192 20 -256 -2z m250 -173 c131 -66 187
-232 124 -369 -20 -43 -51 -79 -138 -160 -62 -58 -116 -106 -120 -108 -12 -4
-200 208 -222 250 -81 158 -10 342 158 404 52 19 141 12 198 -17z"/>
<path d="M7454 18180 c-157 -55 -267 -188 -296 -357 -21 -127 -7 -173 155
-515 l66 -137 218 103 c185 87 227 111 279 159 250 231 172 639 -142 747 -75
26 -208 26 -280 0z m231 -157 c110 -37 181 -152 173 -276 -8 -119 -72 -203
-202 -262 -39 -18 -100 -46 -134 -63 l-64 -31 -66 137 -67 137 0 90 c0 80 3
95 27 137 73 123 205 175 333 131z"/>
<path d="M5445 18116 c-236 -57 -382 -303 -320 -541 41 -156 105 -221 374
-379 111 -65 203 -117 205 -115 1 2 57 96 124 209 141 239 156 281 150 415 -3
82 -8 101 -41 167 -95 193 -295 292 -492 244z m205 -177 c122 -55 192 -198
161 -326 -12 -48 -156 -303 -172 -303 -18 0 -247 144 -281 177 -141 137 -86
396 97 461 51 18 145 14 195 -9z"/>
<path d="M4470 17731 c-72 -23 -106 -42 -158 -86 -195 -168 -196 -479 -2 -658
32 -30 83 -66 112 -80 46 -21 455 -127 493 -127 19 0 125 438 125 517 -1 252
-205 455 -455 452 -33 0 -85 -8 -115 -18z m247 -177 c98 -47 157 -143 156
-254 -1 -54 -52 -293 -68 -320 -7 -11 -303 67 -339 89 -138 86 -179 284 -85
411 51 68 155 114 239 104 25 -3 68 -16 97 -30z"/>
<path d="M4684 13401 c-248 -62 -307 -86 -380 -157 -144 -141 -180 -354 -89
-534 78 -155 277 -254 445 -222 210 39 365 208 377 415 5 76 1 101 -53 320
-32 130 -61 237 -64 236 -3 0 -109 -26 -236 -58z m159 -296 c30 -123 37 -166
31 -203 -21 -145 -139 -252 -279 -252 -186 0 -311 182 -249 363 18 53 82 130
128 154 26 15 290 90 321 92 6 1 28 -69 48 -154z"/>
<path d="M5495 13035 c-266 -158 -330 -224 -371 -388 -56 -216 79 -459 290
-522 73 -22 201 -21 269 3 98 35 201 123 245 209 54 105 68 260 34 359 -22 62
-253 454 -267 453 -5 0 -95 -52 -200 -114z m298 -360 c33 -63 30 -173 -6 -247
-103 -210 -391 -209 -486 2 -30 65 -28 169 3 235 33 72 71 106 214 190 l126
74 64 -107 c35 -58 73 -124 85 -147z"/>
<path d="M7298 12892 c-112 -234 -138 -303 -145 -380 -10 -127 46 -270 143
-362 205 -194 543 -144 673 99 40 75 64 188 56 256 -16 126 -84 254 -169 319
-33 25 -228 122 -414 207 l-63 28 -81 -167z m305 -120 c117 -56 149 -77 184
-116 121 -137 88 -345 -68 -431 -45 -24 -65 -29 -124 -29 -116 0 -200 57 -253
172 -20 45 -23 65 -20 125 3 60 11 88 49 167 25 52 54 114 64 138 10 23 21 42
23 42 2 0 67 -31 145 -68z"/>
<path d="M6380 12849 c-173 -191 -194 -219 -223 -298 -28 -75 -30 -223 -4
-298 44 -127 152 -239 270 -280 78 -27 224 -24 300 6 112 44 205 139 249 256
19 49 23 79 22 165 0 115 -17 172 -74 255 -24 35 -187 190 -350 332 l-36 31
-154 -169z m279 -164 c119 -108 143 -140 166 -218 51 -175 -79 -349 -259 -350
-74 0 -128 21 -179 71 -98 94 -120 243 -54 352 24 38 205 240 215 240 4 0 54
-43 111 -95z"/>
<path d="M6853 6574 c-91 -89 -267 -160 -445 -179 -41 -5 -58 -11 -58 -21 0
-9 11 -14 30 -14 102 0 163 -80 190 -250 12 -81 13 -1828 1 -1915 -5 -33 -14
-78 -20 -101 -24 -88 -93 -154 -162 -154 -32 0 -39 -3 -39 -20 0 -20 7 -20
395 -20 388 0 395 0 395 20 0 17 -7 20 -39 20 -77 0 -143 78 -173 205 -8 36
-13 382 -17 1265 l-6 1215 -52 -51z"/>
<path d="M1990 6375 c0 -10 10 -15 28 -15 15 0 46 -9 69 -19 51 -23 85 -78
110 -176 17 -65 18 -140 18 -1010 0 -1012 0 -1009 -53 -1115 -32 -66 -78 -100
-133 -100 -32 0 -39 -3 -39 -20 0 -20 5 -20 402 -18 362 3 403 5 406 19 2 13
-8 17 -46 21 -65 6 -96 31 -132 103 -43 87 -50 156 -50 483 0 337 -12 291 114
440 124 148 262 241 372 250 104 8 170 -28 233 -126 41 -65 69 -143 161 -447
43 -143 92 -295 109 -338 117 -294 226 -398 421 -400 115 -2 207 39 251 110
25 40 15 62 -19 44 -34 -18 -92 -13 -136 13 -100 58 -181 237 -332 725 -42
135 -94 284 -116 331 -46 97 -125 183 -198 217 -100 46 -239 54 -340 18 -24
-8 -45 -13 -47 -11 -5 5 543 592 746 799 168 170 218 207 279 207 22 0 32 5
32 15 0 13 -41 15 -305 15 -264 0 -305 -2 -305 -15 0 -12 13 -15 55 -15 72 0
110 -20 136 -72 25 -49 27 -99 5 -132 -14 -22 -647 -702 -885 -951 -57 -60
-131 -143 -164 -182 -33 -40 -63 -73 -66 -73 -3 0 -4 267 -1 592 6 581 6 594
28 660 35 105 93 158 172 158 20 0 30 5 30 15 0 13 -52 15 -405 15 -353 0
-405 -2 -405 -15z"/>
<path d="M4860 5870 c-176 -22 -383 -75 -507 -131 l-51 -24 55 -145 c30 -80
57 -147 59 -149 2 -2 27 22 56 54 163 179 310 283 449 320 191 51 344 -51 326
-219 -13 -119 -92 -248 -214 -347 -37 -31 -124 -93 -193 -139 -358 -238 -480
-369 -526 -566 -22 -95 -15 -248 15 -324 84 -208 320 -322 602 -290 176 20
298 79 409 198 112 119 194 312 222 523 6 49 13 88 14 86 2 -2 17 -69 34 -150
93 -439 213 -622 432 -657 123 -19 239 21 299 103 25 34 27 42 14 49 -8 5 -23
4 -34 -2 -28 -14 -87 -12 -120 4 -74 39 -156 179 -209 361 -16 55 -46 186 -66
290 -94 489 -118 602 -147 693 -66 207 -153 323 -293 392 -44 22 -112 47 -151
56 -84 18 -368 27 -475 14z m515 -314 c49 -87 90 -204 116 -328 18 -83 22
-137 22 -278 1 -343 -64 -556 -217 -718 -138 -145 -307 -192 -472 -131 -187
70 -249 306 -139 527 49 97 124 182 272 309 180 155 274 258 318 346 43 89 69
202 62 280 -3 31 -4 57 -2 57 2 0 20 -29 40 -64z"/>
<path d="M9198 5864 c-73 -17 -157 -59 -235 -118 -67 -51 -194 -181 -245 -253
l-33 -45 -3 212 -2 212 -56 -52 c-99 -90 -277 -162 -438 -177 -78 -7 -89 -27
-20 -38 94 -14 151 -99 173 -259 14 -99 14 -1055 1 -1151 -25 -171 -85 -255
-185 -255 -28 0 -35 -4 -35 -20 0 -20 7 -20 395 -20 388 0 395 0 395 20 0 16
-7 20 -35 20 -71 0 -128 51 -158 140 -32 94 -37 201 -37 726 l0 526 47 61 c26
34 84 99 129 144 64 63 101 91 169 124 74 37 95 43 148 43 43 -1 74 -7 103
-22 137 -71 204 -251 303 -819 54 -308 76 -405 122 -546 88 -271 188 -383 363
-408 75 -10 149 1 213 32 45 22 116 95 110 113 -4 11 -13 11 -90 -1 -50 -7
-88 10 -136 62 -103 112 -166 309 -251 780 -22 127 -52 281 -66 344 -19 83
-23 120 -16 135 6 12 38 52 71 89 168 188 317 267 444 236 78 -19 153 -98 195
-206 65 -169 97 -304 177 -758 111 -628 239 -829 525 -828 97 0 166 29 221 91
43 49 45 69 8 64 -111 -15 -113 -15 -157 18 -107 77 -190 287 -257 645 -109
584 -142 719 -216 872 -121 252 -367 347 -616 238 -117 -52 -280 -191 -382
-327 -24 -32 -47 -58 -51 -58 -4 0 -11 12 -14 28 -14 56 -96 209 -139 257
-108 121 -273 170 -439 129z"/>
<path d="M12230 5869 c-223 -34 -464 -174 -609 -354 -304 -378 -294 -916 24
-1275 122 -138 307 -254 475 -300 275 -73 575 -26 807 127 151 100 311 294
372 452 41 106 46 131 29 131 -8 0 -29 -33 -48 -76 -92 -209 -256 -380 -445
-463 -80 -35 -202 -61 -293 -61 -435 0 -804 407 -848 938 l-7 82 753 0 753 0
-7 68 c-29 293 -205 550 -456 666 -41 19 -102 42 -135 51 -73 19 -276 28 -365
14z m184 -108 c210 -73 368 -259 426 -501 11 -47 20 -93 20 -102 0 -17 -35
-18 -585 -18 l-586 0 7 53 c38 301 203 524 430 582 78 19 210 13 288 -14z"/>
<path d="M14445 5868 c-68 -13 -197 -75 -271 -131 -69 -52 -173 -159 -224
-230 -18 -26 -36 -47 -39 -47 -3 0 -5 92 -4 205 1 113 1 205 -1 205 -1 0 -25
-22 -54 -49 -92 -87 -274 -161 -432 -177 -78 -7 -95 -27 -32 -38 87 -13 139
-77 169 -206 16 -67 18 -133 18 -630 0 -488 -2 -564 -17 -628 -31 -132 -78
-190 -162 -199 -37 -5 -46 -9 -46 -24 0 -19 14 -19 393 -17 339 3 392 5 392
18 0 10 -15 17 -47 21 -59 9 -90 32 -123 91 -50 92 -55 150 -55 750 l-1 551
34 51 c98 147 235 288 330 338 34 18 59 23 127 23 74 0 93 -4 144 -29 70 -34
178 -134 248 -228 28 -38 55 -65 58 -61 4 4 31 71 60 147 l53 140 -33 28 c-53
43 -180 106 -251 123 -71 16 -158 18 -234 3z"/>
<path d="M15706 5870 c-98 -12 -219 -35 -311 -61 -111 -32 -236 -81 -242 -95
-4 -10 90 -277 103 -293 1 -1 44 40 95 93 143 150 279 243 413 281 117 34 242
1 294 -78 24 -36 27 -50 27 -121 -1 -69 -5 -91 -31 -146 -61 -129 -144 -208
-399 -379 -258 -174 -347 -251 -424 -371 -56 -86 -81 -168 -88 -280 -15 -254
117 -432 367 -496 94 -24 272 -22 373 5 116 31 191 74 283 166 70 69 88 95
132 185 57 118 85 211 105 350 10 64 16 87 20 70 3 -14 18 -81 32 -150 91
-424 212 -605 427 -639 123 -20 233 17 301 102 23 28 28 40 19 49 -9 9 -18 9
-37 0 -107 -49 -219 49 -295 256 -46 126 -83 281 -139 587 -97 523 -156 692
-284 812 -122 114 -243 152 -497 158 -91 2 -201 0 -244 -5z m540 -375 c148
-310 150 -816 2 -1109 -105 -210 -310 -337 -496 -307 -122 20 -195 69 -242
164 -73 149 -42 326 86 493 51 68 91 106 302 288 50 44 114 107 141 141 96
118 149 273 139 403 -4 50 -4 53 10 36 8 -10 34 -59 58 -109z"/>
<path d="M7735 5817 c-90 -86 -272 -159 -431 -173 -53 -5 -74 -11 -74 -20 0
-9 11 -14 28 -14 42 0 114 -41 140 -79 64 -97 75 -234 69 -842 -5 -524 -9
-575 -61 -664 -31 -52 -65 -75 -125 -84 -31 -4 -46 -11 -46 -21 0 -13 52 -15
395 -15 368 0 395 1 398 18 3 14 -4 17 -33 17 -99 0 -156 72 -187 236 -7 39
-13 340 -17 874 l-6 815 -50 -48z"/>
<path d="M8193 3140 c-176 -37 -277 -214 -245 -430 6 -44 20 -100 31 -124 23
-54 83 -115 136 -141 50 -24 181 -32 239 -15 92 28 160 99 190 200 9 30 16 55
16 57 0 2 -21 3 -46 1 -45 -3 -46 -4 -65 -52 -35 -92 -97 -136 -191 -136 -106
1 -184 66 -209 175 -18 79 -8 211 20 269 74 152 310 162 376 17 17 -39 20 -41
63 -41 43 0 44 1 37 28 -20 80 -90 158 -162 180 -56 17 -142 22 -190 12z"/>
<path d="M10953 3139 c-95 -18 -165 -70 -210 -156 -107 -200 -38 -465 140
-544 74 -33 210 -32 285 0 68 30 143 112 173 189 30 76 33 232 6 309 -39 113
-124 182 -247 202 -73 12 -88 12 -147 0z m175 -95 c47 -19 88 -58 115 -109 19
-34 22 -56 22 -145 0 -88 -4 -113 -23 -155 -46 -100 -100 -135 -209 -135 -82
0 -135 22 -180 73 -80 91 -84 283 -9 397 51 77 190 114 284 74z"/>
<path d="M5740 2781 l0 -351 154 0 c177 0 245 10 298 45 109 72 111 253 3 311
-19 10 -35 20 -35 21 0 2 17 18 37 37 34 31 37 39 41 97 4 81 -17 124 -79 159
-42 24 -53 25 -231 28 l-188 4 0 -351z m382 230 c26 -30 30 -39 25 -78 -2 -24
-12 -52 -22 -63 -24 -27 -105 -42 -205 -38 l-85 3 -3 109 -3 108 131 -3 132
-4 30 -34z m-28 -262 c61 -17 86 -49 86 -110 0 -44 -4 -55 -33 -84 -40 -40
-80 -48 -217 -43 l-95 3 -3 123 -3 122 113 0 c62 0 130 -5 152 -11z"/>
<path d="M6500 2780 l0 -350 256 0 255 0 -3 43 -3 42 -207 3 -208 2 0 115 0
115 190 0 190 0 0 40 0 40 -190 0 -190 0 0 105 0 105 205 0 205 0 0 45 0 45
-250 0 -250 0 0 -350z"/>
<path d="M7307 2798 c-69 -183 -128 -341 -132 -350 -6 -16 -1 -18 42 -18 l49
0 19 53 c10 28 27 76 37 105 l19 52 139 0 138 0 34 -102 35 -103 53 -3 c47 -3
52 -1 45 15 -3 10 -61 168 -127 351 l-121 332 -52 0 -52 0 -126 -332z m226 75
c26 -76 47 -141 47 -145 0 -5 -48 -8 -106 -8 -58 0 -104 4 -102 8 2 5 25 70
52 145 28 76 52 137 56 137 3 0 27 -62 53 -137z"/>
<path d="M8770 2780 l0 -351 48 3 47 3 3 163 2 162 180 0 180 0 0 -165 0 -165
45 0 45 0 0 350 0 350 -45 0 -45 0 0 -145 0 -145 -180 0 -179 0 -3 143 -3 142
-47 3 -48 3 0 -351z"/>
<path d="M9935 3117 c-3 -6 -4 -163 -3 -347 l3 -335 48 -3 47 -3 0 165 0 166
180 0 180 0 0 -165 0 -165 45 0 45 0 0 350 0 350 -45 0 -45 0 0 -145 0 -145
-180 0 -180 0 0 145 0 145 -45 0 c-27 0 -48 -5 -50 -13z"/>
<path d="M11520 3090 l0 -40 115 0 115 0 2 -307 3 -308 48 -3 47 -3 0 310 0
311 115 0 115 0 0 40 0 40 -280 0 -280 0 0 -40z"/>
<path d="M12280 3125 c0 -3 0 -159 0 -347 l-1 -343 256 -3 255 -2 0 45 0 45
-210 0 -210 0 0 115 0 115 190 0 190 0 0 40 0 40 -190 0 -190 0 0 105 0 105
205 0 205 0 0 45 0 45 -250 0 c-137 0 -250 -2 -250 -5z"/>
<path d="M13010 2780 l0 -350 223 2 222 3 0 40 0 40 -177 3 -178 2 0 305 0
305 -45 0 -45 0 0 -350z"/>
<path d="M1990 2780 l0 -50 1590 0 1590 0 0 50 0 50 -1590 0 -1590 0 0 -50z"/>
<path d="M14024 2816 c-3 -8 -4 -29 -2 -48 l3 -33 1593 -3 1592 -2 0 50 0 50
-1590 0 c-1357 0 -1591 -2 -1596 -14z"/>
</g>
</svg>
