<?xml version="1.0" encoding="UTF-8" standalone="no"?>
<svg
   xmlns:dc="http://purl.org/dc/elements/1.1/"
   xmlns:cc="http://creativecommons.org/ns#"
   xmlns:rdf="http://www.w3.org/1999/02/22-rdf-syntax-ns#"
   xmlns:svg="http://www.w3.org/2000/svg"
   xmlns="http://www.w3.org/2000/svg"
   xmlns:sodipodi="http://sodipodi.sourceforge.net/DTD/sodipodi-0.dtd"
   xmlns:inkscape="http://www.inkscape.org/namespaces/inkscape"
   version="1.1"
   id="svg2"
   xml:space="preserve"
   width="1333.3333"
   height="1333.3333"
   viewBox="0 0 1333.3333 1333.3333"
   sodipodi:docname="Lunalabs square logo.ai"><metadata
     id="metadata8"><rdf:RDF><cc:Work
         rdf:about=""><dc:format>image/svg+xml</dc:format><dc:type
           rdf:resource="http://purl.org/dc/dcmitype/StillImage" /></cc:Work></rdf:RDF></metadata><defs
     id="defs6"><clipPath
       clipPathUnits="userSpaceOnUse"
       id="clipPath18"><path
         d="M 0,1000 H 1000 V 0 H 0 Z"
         id="path16" /></clipPath></defs><sodipodi:namedview
     pagecolor="#ffffff"
     bordercolor="#666666"
     borderopacity="1"
     objecttolerance="10"
     gridtolerance="10"
     guidetolerance="10"
     inkscape:pageopacity="0"
     inkscape:pageshadow="2"
     inkscape:window-width="640"
     inkscape:window-height="480"
     id="namedview4" /><g
     id="g10"
     inkscape:groupmode="layer"
     inkscape:label="Lunalabs square logo"
     transform="matrix(1.3333333,0,0,-1.3333333,0,1333.3333)"><g
       id="g12"><g
         id="g14"
         clip-path="url(#clipPath18)"><g
           id="g20"
           transform="translate(718.9229,451.5225)"><path
             d="m 0,0 c -55.133,17.28 -106.571,42.554 -156.757,68.022 -65.818,33.4 -125.644,75.069 -193.716,104.922 -75.584,33.145 -156.423,17.748 -207.707,-29.308 6.586,-99.342 43.43,-186.501 103.044,-251.081 63.192,-68.685 156.62,-107.151 255.54,-107.151 96.165,0 189.593,38.466 255.523,107.151 27.577,29.875 50.494,64.784 68.219,103.265 C 83.046,-13.343 41.283,-12.939 0,0"
             style="fill:#010071;fill-opacity:1;fill-rule:nonzero;stroke:none"
             id="path22" /></g><g
           id="g24"
           transform="translate(643.7822,864.3843)"><path
             d="m 0,0 c -2.458,-14.578 -8.148,-27.897 -16.262,-39.339 -9.281,-13.086 -21.704,-23.638 -36.094,-30.703 -15.177,-7.451 -32.462,-11.082 -50.534,-9.496 -34.374,3.018 -62.82,23.864 -77.266,52.58 -7.735,15.374 -11.524,32.967 -9.908,51.371 2.519,28.693 17.48,53.25 39.041,69.009 16.153,11.807 36.001,18.623 57.213,18.45 -2.531,0.398 -5.048,0.834 -7.638,1.061 -61.246,5.375 -115.254,-39.917 -120.63,-101.163 -1.417,-16.153 0.772,-31.765 5.766,-46.151 12.365,-35.62 42.398,-63.42 80.5,-72.032 4.859,-1.097 9.797,-1.999 14.897,-2.447 11.965,-1.05 23.633,-0.111 34.736,2.447 34.429,7.933 63.185,31.953 77.168,64.375 4.592,10.647 7.655,22.158 8.725,34.341 C -0.06,-5.11 -0.049,-2.558 0,0"
             style="fill:#010071;fill-opacity:1;fill-rule:nonzero;stroke:none"
             id="path26" /></g><g
           id="g28"
           transform="translate(686.374,108.0879)"><path
             d="m 0,0 c 0.077,-2.424 0.293,-5.083 0.972,-7.698 1.289,-4.971 3.791,-9.25 7.622,-12.617 3.644,-3.204 7.972,-5.014 12.882,-5.383 6.943,-0.524 12.978,1.535 17.931,6.395 4.735,4.645 7.077,10.474 7.494,17.03 0.325,5.104 -0.204,10.12 -2.523,14.804 -1.665,3.366 -3.821,6.331 -6.818,8.652 -4.576,3.543 -9.71,5.048 -15.507,4.731 C 16.48,25.608 11.744,23.544 7.787,19.721 2.299,14.42 0.07,7.758 0,0 m -0.313,36.187 c 2.176,1.345 4.241,2.564 6.469,3.44 14.632,5.746 28.733,4.886 41.895,-3.982 9.227,-6.218 14.608,-15.193 16.703,-26.047 1.862,-9.651 1.198,-19.17 -2.958,-28.178 -6.088,-13.194 -16.39,-21.184 -30.729,-23.64 -11.065,-1.895 -21.49,0.047 -31.027,6.159 -0.087,0.056 -0.187,0.091 -0.342,0.165 -0.474,-2.048 -1.31,-3.891 -2.857,-5.349 -2.828,-2.666 -6.181,-3.139 -9.681,-1.916 -3.482,1.216 -5.531,3.828 -6,7.555 -0.097,0.771 -0.133,1.553 -0.133,2.331 -0.006,31.318 -0.003,62.635 -0.008,93.954 0,3.696 1.259,6.78 4.522,8.704 5.703,3.363 13.913,-0.081 14.088,-7.652 0.186,-8.082 0.052,-16.171 0.058,-24.257 0.001,-0.375 0,-0.75 0,-1.287"
             style="fill:#010071;fill-opacity:1;fill-rule:nonzero;stroke:none"
             id="path30" /></g><g
           id="g32"
           transform="translate(492.2607,108.7568)"><path
             d="m 0,0 c 0.023,1.034 -0.067,2.556 -0.292,4.062 -0.152,1.013 -0.358,2.022 -0.61,3.015 -2.753,10.86 -12.075,19.427 -25.153,18.103 -6.872,-0.696 -12.283,-4.087 -16.204,-9.753 -3.574,-5.167 -4.922,-10.961 -4.669,-17.207 0.153,-3.771 0.89,-7.378 2.448,-10.805 4.044,-8.895 12.671,-14.802 23.373,-13.727 6.15,0.618 11.209,3.34 15.127,8.096 C -1.75,-13.081 -0.001,-7.073 0,0 m 0.316,-36.558 c -5.523,-3.599 -11.434,-5.812 -17.858,-6.629 -22.775,-2.893 -41.888,10.61 -46.776,31.492 -2.522,10.777 -1.76,21.356 3.19,31.371 5.87,11.878 15.492,19.163 28.399,21.867 11.484,2.405 22.369,0.557 32.427,-5.628 0.554,-0.341 0.731,-0.379 0.965,0.347 1.49,4.607 5.555,7.074 10.331,6.346 4.497,-0.685 7.58,-4.253 7.772,-9 0.195,-4.821 0.087,-9.644 0.088,-14.466 0.009,-17.77 0.009,-35.539 0,-53.308 -10e-4,-3.892 -1.52,-6.986 -5.083,-8.774 -4.848,-2.434 -11.561,-0.428 -13.233,5.811 -0.045,0.167 -0.125,0.325 -0.222,0.571"
             style="fill:#010071;fill-opacity:1;fill-rule:nonzero;stroke:none"
             id="path34" /></g><g
           id="g36"
           transform="translate(626.0381,92.4668)"><path
             d="m 0,0 c 0.907,0.595 1.22,1.61 1.685,2.492 4.676,8.873 4.331,22.45 -2.886,30.941 -2.214,2.603 -4.809,4.702 -7.931,6.106 -0.618,0.278 -0.806,0.549 -0.682,1.252 0.918,5.194 1.783,10.399 2.669,15.601 0.047,0.274 0.14,0.54 0.217,0.831 4.061,-1.103 7.828,-2.768 11.353,-4.984 0.446,-0.28 0.711,-0.587 0.988,0.268 1.51,4.654 5.486,7.087 10.295,6.397 4.521,-0.648 7.631,-4.258 7.819,-9.063 0.19,-4.821 0.085,-9.645 0.087,-14.467 0.009,-17.732 0.006,-35.464 0.002,-53.196 -0.001,-3.936 -1.53,-7.04 -5.129,-8.856 -5.306,-2.677 -11.516,0.083 -13.178,5.784 -0.059,0.199 -0.155,0.385 -0.248,0.614 -4.685,-3.052 -9.707,-5.168 -15.167,-6.181 -22.871,-4.243 -43.748,8.264 -49.267,30.384 -3.407,13.655 -1.583,26.673 6.817,38.333 5.207,7.227 12.243,11.965 20.719,14.624 0.699,0.22 0.841,0.017 0.942,-0.589 0.898,-5.342 1.805,-10.684 2.736,-16.02 0.085,-0.484 -0.057,-0.678 -0.464,-0.891 -8.937,-4.668 -12.966,-12.348 -13.515,-22.135 -0.107,-1.91 -0.103,-3.826 0.268,-5.719 0.168,-2.13 0.713,-4.177 1.466,-6.167 5.262,-13.903 19.268,-18.536 30.773,-13.648 4.05,1.72 7.45,4.33 9.631,8.289"
             style="fill:#010071;fill-opacity:1;fill-rule:nonzero;stroke:none"
             id="path38" /></g><g
           id="g40"
           transform="translate(356.4033,96.7539)"><path
             d="m 0,0 c 0,-6.914 0.052,-13.83 -0.018,-20.744 -0.049,-4.885 -3.806,-8.698 -8.613,-8.936 -5.286,-0.26 -9.302,3.039 -9.884,8.138 -0.08,0.701 -0.124,1.41 -0.124,2.116 -0.007,12.802 -0.138,25.605 0.04,38.405 0.121,8.72 0.058,17.439 0.144,26.159 0.039,4.06 2.328,7.55 5.867,8.796 3.4,1.197 7.75,0.733 10.479,-2.531 0.275,-0.328 0.462,-0.603 1.024,-0.335 4.738,2.264 9.795,3.183 15,3.43 6.244,0.297 12.402,-0.22 18.28,-2.474 9.792,-3.755 15.73,-10.976 18.445,-20.985 1.008,-3.714 1.424,-7.52 1.437,-11.35 0.047,-13.262 0.027,-26.525 0.012,-39.788 -0.004,-3.451 -1.289,-6.326 -4.27,-8.186 -3.058,-1.909 -6.352,-1.983 -9.517,-0.354 -3.145,1.619 -4.814,4.393 -4.83,7.933 -0.058,13.582 -0.021,27.163 -0.054,40.745 -0.006,2.663 -0.394,5.289 -1.248,7.828 -1.567,4.656 -4.725,7.654 -9.472,8.887 -3.726,0.968 -7.515,1.01 -11.266,0.18 C 5.32,35.581 1.928,31.565 0.656,25.585 0.228,23.571 0.02,21.529 0.02,19.469 V 0 Z"
             style="fill:#010071;fill-opacity:1;fill-rule:nonzero;stroke:none"
             id="path42" /></g><g
           id="g44"
           transform="translate(266.6191,121.5322)"><path
             d="m 0,0 c 0,-6.632 -0.024,-13.264 0.012,-19.896 0.014,-2.59 0.373,-5.146 1.162,-7.632 1.625,-5.117 5.097,-8.226 10.294,-9.366 3.501,-0.767 7.045,-0.746 10.548,0.035 6.119,1.364 9.496,5.378 10.766,11.356 0.428,2.014 0.628,4.055 0.629,6.115 0.005,13.369 -0.021,26.74 0.038,40.11 0.021,4.966 3.79,8.794 8.641,9.014 5.291,0.241 9.267,-3.044 9.872,-8.167 0.067,-0.561 0.108,-1.129 0.108,-1.694 0.006,-13.086 0.038,-26.172 -0.011,-39.258 -0.02,-5.376 -0.74,-10.667 -2.778,-15.691 -3.686,-9.091 -10.26,-15.111 -19.694,-17.733 -9.032,-2.511 -18.172,-2.523 -27.118,0.387 -10.872,3.536 -17.197,11.344 -19.895,22.276 -0.905,3.664 -1.22,7.406 -1.228,11.165 -0.028,12.979 -0.011,25.959 -0.011,38.939 0,3.267 1.056,6.07 3.764,8.034 3.02,2.19 6.368,2.377 9.667,0.882 3.303,-1.496 5.12,-4.293 5.179,-7.918 C 0.059,13.974 -0.022,6.985 -0.022,0 Z"
             style="fill:#010071;fill-opacity:1;fill-rule:nonzero;stroke:none"
             id="path46" /></g><g
           id="g48"
           transform="translate(800.4482,148.6699)"><path
             d="m 0,0 c 7.721,-0.227 15.063,-1.857 21.724,-5.953 2.838,-1.746 5.284,-3.945 7.092,-6.759 2.121,-3.298 1.629,-7.355 -1.098,-9.974 -2.697,-2.588 -7.104,-2.978 -10.16,-0.903 -0.564,0.382 -1.027,0.866 -1.481,1.365 -3.605,3.965 -8.126,6.085 -13.411,6.695 -3.225,0.371 -6.418,0.335 -9.535,-0.676 -3.128,-1.014 -4.974,-3.171 -5.327,-6.444 -0.325,-3.016 0.645,-5.533 3.149,-7.415 2.517,-1.893 5.473,-2.701 8.401,-3.592 6.346,-1.933 12.827,-3.48 18.901,-6.217 6.318,-2.848 11.136,-7.272 12.836,-14.178 2.924,-11.878 -1.234,-21.543 -12.636,-27.692 -4.612,-2.487 -9.589,-3.793 -14.85,-4.054 -8.204,-0.408 -16.088,0.91 -23.568,4.325 -4.823,2.202 -8.726,5.576 -11.925,9.807 -2.126,2.812 -2.081,7.729 1.09,10.566 3.875,3.466 8.385,3.426 12.062,-0.272 3.191,-3.211 6.631,-6.085 10.917,-7.685 5.44,-2.03 11.036,-2.576 16.684,-0.957 2.963,0.85 5.212,2.586 5.962,5.819 0.952,4.108 -0.476,7.325 -4.225,9.275 -3.956,2.059 -8.218,3.273 -12.489,4.45 -4.78,1.317 -9.525,2.752 -14.071,4.742 -5.232,2.29 -9.526,5.73 -12.118,10.919 -2.044,4.093 -2.417,8.54 -1.896,13.018 1.019,8.738 6.409,14.25 13.842,18.085 3.879,2 8.046,3.128 12.419,3.493 C -2.475,-0.108 -1.244,-0.037 0,0"
             style="fill:#010071;fill-opacity:1;fill-rule:nonzero;stroke:none"
             id="path50" /></g><g
           id="g52"
           transform="translate(167.5952,121.6201)"><path
             d="m 0,0 c 0,14.54 -0.003,29.08 0.007,43.62 0.001,0.954 0.006,1.927 0.182,2.858 0.832,4.404 4.616,7.523 9.104,7.576 4.871,0.056 8.561,-2.481 9.773,-6.725 0.254,-0.891 0.351,-1.798 0.351,-2.727 -0.006,-26.456 0,-52.912 -0.024,-79.368 -0.001,-0.918 0.161,-1.227 1.174,-1.224 13.086,0.04 26.172,0.033 39.258,0.023 4.697,-0.004 8.603,-3.156 9.184,-7.369 0.849,-6.162 -3,-10.743 -9.271,-10.765 C 43,-54.159 26.261,-54.1 9.522,-54.135 c -4.818,-0.01 -9.616,3.516 -9.56,10.303 C 0.085,-29.223 0,-14.61 0,0"
             style="fill:#010071;fill-opacity:1;fill-rule:nonzero;stroke:none"
             id="path54" /></g><g
           id="g56"
           transform="translate(547.3115,121.4697)"><path
             d="m 0,0 c 0,-15.778 -0.015,-31.557 0.011,-47.335 0.005,-3.562 -1.244,-6.478 -4.274,-8.403 -5.33,-3.386 -13.395,-0.523 -14.263,6.742 -0.097,0.807 -0.133,1.624 -0.134,2.436 -0.006,31.274 -0.003,62.546 -0.008,93.819 -0.001,3.868 1.346,7.057 4.858,8.925 5.809,3.087 13.579,-0.52 13.748,-7.788 C 0.129,40.211 -0.004,32.017 -0.001,23.827 0.002,15.885 0,7.942 0,0"
             style="fill:#010071;fill-opacity:1;fill-rule:nonzero;stroke:none"
             id="path58" /></g><g
           id="g60"
           transform="translate(626.0381,92.4668)"><path
             d="m 0,0 c -2.181,-3.959 -5.581,-6.569 -9.631,-8.289 -11.505,-4.888 -25.511,-0.255 -30.773,13.648 -0.753,1.99 -1.298,4.037 -1.466,6.167 1.147,0.882 2.213,1.881 3.568,2.468 3.267,1.414 6.42,1.089 9.489,-0.597 3.145,-1.726 5.98,-3.919 8.943,-5.923 3.462,-2.342 7.027,-4.506 10.851,-6.232 C -6.281,0.007 -3.491,-0.469 -0.55,0.269 -0.235,0.348 0.003,0.479 0,0"
             style="fill:#3deae5;fill-opacity:1;fill-rule:nonzero;stroke:none"
             id="path62" /></g><g
           id="g64"
           transform="translate(630.2461,27.9121)"><path
             d="M 0,0 C -0.052,-1.744 0.358,-3.368 1.283,-4.851 3.84,-8.949 9.637,-9.066 12.182,-4.98 14.135,-1.844 14.176,1.496 12.289,4.676 9.786,8.895 3.983,8.933 1.345,4.833 0.399,3.366 -0.037,1.745 0,0 m 13.466,7.003 c 0,3.559 -0.002,6.853 0.001,10.148 10e-4,1.158 0.47,1.73 1.383,1.714 0.871,-0.015 1.358,-0.589 1.358,-1.652 0.004,-8.575 0.004,-17.151 0,-25.727 0,-1.126 -0.513,-1.731 -1.429,-1.678 -0.764,0.044 -1.27,0.423 -1.306,1.243 -0.025,0.562 -0.005,1.128 -0.005,1.685 -0.322,0.125 -0.371,-0.154 -0.491,-0.285 -4.162,-4.533 -10.937,-3.972 -14.052,1.323 -2.481,4.219 -2.432,8.608 0.263,12.74 3.228,4.949 9.924,5.351 13.861,0.959 0.086,-0.097 0.172,-0.194 0.417,-0.47"
             style="fill:#010071;fill-opacity:1;fill-rule:nonzero;stroke:none"
             id="path66" /></g><g
           id="g68"
           transform="translate(777.5381,28.0527)"><path
             d="m 0,0 c 0.018,-1.583 0.261,-2.938 0.874,-4.197 1.142,-2.348 2.963,-3.769 5.633,-3.883 2.662,-0.114 4.676,1.067 5.94,3.369 C 14.128,-1.654 14.119,1.488 12.36,4.5 10.232,8.145 5.449,8.823 2.41,5.968 0.65,4.313 0.038,2.167 0,0 m 13.467,7.117 c 0,0.593 -0.048,1.058 0.011,1.508 0.098,0.764 0.579,1.236 1.346,1.25 0.755,0.013 1.275,-0.385 1.386,-1.184 0.039,-0.279 0.059,-0.563 0.059,-0.845 0.003,-5.387 0.003,-10.773 0.001,-16.159 0,-0.283 -0.021,-0.567 -0.056,-0.846 -0.102,-0.81 -0.627,-1.179 -1.384,-1.175 -0.771,0.005 -1.269,0.438 -1.353,1.221 -0.056,0.513 -0.011,1.037 -0.011,1.772 -0.514,-0.505 -0.859,-0.881 -1.24,-1.214 -3.913,-3.412 -9.725,-2.748 -12.818,1.456 -2.859,3.888 -2.884,9.835 -0.057,13.756 3.225,4.476 9.566,4.968 13.446,1.045 0.167,-0.169 0.358,-0.314 0.67,-0.585"
             style="fill:#010071;fill-opacity:1;fill-rule:nonzero;stroke:none"
             id="path70" /></g><g
           id="g72"
           transform="translate(581.8291,27.7861)"><path
             d="m 0,0 c 0.024,0.854 -0.069,1.697 -0.276,2.526 -0.719,2.87 -2.976,5.059 -5.527,5.366 -2.963,0.356 -5.457,-0.838 -6.77,-3.51 -1.603,-3.258 -1.484,-6.546 0.599,-9.569 2.419,-3.507 7.631,-3.545 10.234,-0.165 C -0.528,-3.776 -0.003,-1.971 0,0 M 2.627,9.038 C 2.62,3.009 2.614,-3.021 2.608,-9.05 l 10e-4,-0.005 c -0.288,-0.853 -0.901,-1.163 -1.742,-0.951 -1.463,0.369 -1.044,1.608 -1.147,2.649 -0.399,-0.048 -0.569,-0.381 -0.795,-0.609 -3.296,-3.315 -8.876,-3.355 -12.098,-0.05 -2.716,2.787 -3.548,6.125 -3.046,9.895 0.396,2.968 1.665,5.385 4.122,7.207 3.085,2.288 8.228,1.944 10.93,-0.843 0.218,-0.224 0.417,-0.48 0.849,-0.58 0.05,1.04 0.032,2.21 1.347,2.457 0.766,0.145 1.357,-0.285 1.597,-1.078 z"
             style="fill:#010071;fill-opacity:1;fill-rule:nonzero;stroke:none"
             id="path74" /></g><g
           id="g76"
           transform="translate(767.3135,30.1143)"><path
             d="m 0,0 c -0.356,3.116 -2.747,5.385 -5.777,5.548 -3.133,0.169 -6.049,-1.952 -6.711,-4.88 -0.08,-0.356 -0.202,-0.68 0.407,-0.677 C -8.057,0.008 -4.032,0 0,0 m -5.439,-2.532 c -2.199,0 -4.398,-0.029 -6.595,0.015 -0.736,0.016 -0.886,-0.192 -0.789,-0.907 0.415,-3.075 1.911,-5.375 4.908,-6.328 2.982,-0.948 5.75,-0.452 7.931,2.028 0.554,0.632 1.179,0.936 1.938,0.362 0.621,-0.472 0.578,-1.282 -0.069,-2.05 -2.632,-3.13 -6.906,-4.193 -11.03,-2.744 -3.85,1.352 -6.281,4.827 -6.423,9.122 -0.118,3.564 0.711,6.799 3.532,9.172 2.972,2.499 6.356,2.853 9.83,1.184 3.432,-1.648 4.983,-4.577 5.072,-8.318 0.025,-1.025 -0.51,-1.52 -1.603,-1.529 -2.234,-0.021 -4.468,-0.007 -6.702,-0.007"
             style="fill:#010071;fill-opacity:1;fill-rule:nonzero;stroke:none"
             id="path78" /></g><g
           id="g80"
           transform="translate(607.5703,30.1143)"><path
             d="m 0,0 c 3.893,0 7.773,0.031 11.653,-0.021 1.005,-0.014 0.985,0.348 0.754,1.109 C 11.538,3.957 8.92,5.73 5.751,5.549 2.963,5.389 0.463,3.005 0,0 m 7.11,-2.532 c -2.197,0 -4.394,-0.024 -6.59,0.014 -0.637,0.012 -0.885,-0.116 -0.794,-0.804 0.391,-2.961 1.734,-5.277 4.628,-6.319 2.909,-1.047 5.648,-0.688 7.94,1.6 0.175,0.176 0.323,0.378 0.505,0.545 0.532,0.491 1.125,0.634 1.712,0.132 0.608,-0.521 0.673,-1.164 0.159,-1.783 -1.672,-2.012 -3.772,-3.361 -6.403,-3.582 -7.301,-0.617 -12.218,4.726 -11.156,12.294 0.533,3.793 2.382,6.717 6.094,8.153 5.191,2.007 12.121,-1.279 12.264,-8.741 0.018,-0.968 -0.582,-1.495 -1.659,-1.503 -2.234,-0.019 -4.466,-0.006 -6.7,-0.006"
             style="fill:#010071;fill-opacity:1;fill-rule:nonzero;stroke:none"
             id="path82" /></g><g
           id="g84"
           transform="translate(545.4258,30.1143)"><path
             d="m 0,0 c 3.893,0 7.772,0.033 11.65,-0.023 1.007,-0.014 0.986,0.347 0.763,1.105 C 11.579,3.93 8.926,5.729 5.759,5.549 2.97,5.391 0.493,3.033 0,0 m 7.163,-2.532 c -2.232,0 -4.466,-0.02 -6.698,0.012 -0.591,0.009 -0.814,-0.124 -0.736,-0.753 0.365,-2.966 1.699,-5.285 4.583,-6.348 2.904,-1.071 5.65,-0.731 7.949,1.547 1.121,1.11 1.623,1.278 2.296,0.671 0.723,-0.654 0.628,-1.32 -0.485,-2.424 -3.053,-3.032 -6.686,-3.705 -10.661,-2.309 -3.998,1.406 -5.99,4.465 -6.38,8.581 -0.26,2.739 0.198,5.367 1.752,7.718 2.152,3.252 5.763,4.717 9.595,3.896 3.643,-0.782 6.359,-3.746 6.929,-7.561 0.051,-0.35 0.113,-0.699 0.138,-1.051 0.104,-1.414 -0.396,-1.969 -1.797,-1.976 C 11.486,-2.54 9.325,-2.532 7.163,-2.532"
             style="fill:#010071;fill-opacity:1;fill-rule:nonzero;stroke:none"
             id="path86" /></g><g
           id="g88"
           transform="translate(823.126,30.1143)"><path
             d="M 0,0 C 1.88,0 3.76,0.02 5.639,-0.012 6.252,-0.021 6.405,0.084 6.254,0.749 5.621,3.529 3.126,5.531 0.154,5.555 -2.773,5.577 -5.537,3.428 -6.171,0.665 -6.288,0.152 -6.2,-0.021 -5.639,-0.012 -3.76,0.019 -1.88,0 0,0 m 0.932,-2.532 c -2.199,0 -4.398,-0.017 -6.596,0.011 -0.643,0.007 -0.942,-0.056 -0.837,-0.859 0.405,-3.08 1.885,-5.389 4.873,-6.357 3.018,-0.978 5.812,-0.474 8.012,2.059 0.551,0.635 1.235,0.924 1.933,0.269 0.672,-0.63 0.484,-1.309 -0.066,-1.964 -2.633,-3.143 -6.894,-4.232 -11.019,-2.803 -3.861,1.339 -6.313,4.797 -6.471,9.092 -0.115,3.115 0.539,5.977 2.654,8.385 2.489,2.834 6.59,3.762 10.201,2.296 C 7.033,6.21 9.375,2.581 9.201,-1.057 9.153,-2.055 8.651,-2.52 7.528,-2.527 5.33,-2.543 3.131,-2.532 0.932,-2.532"
             style="fill:#010071;fill-opacity:1;fill-rule:nonzero;stroke:none"
             id="path90" /></g><g
           id="g92"
           transform="translate(514.0713,17.335)"><path
             d="m 0,0 c -7.195,0.017 -12.92,5.246 -13.596,12.429 -0.684,7.265 3.191,13.396 9.752,15.264 4.121,1.174 8.057,0.579 11.73,-1.638 C 8.929,25.425 9.148,24.711 8.62,23.882 8.139,23.124 7.459,23.067 6.398,23.695 1.487,26.606 -4.18,25.992 -7.813,22.155 -12.817,16.871 -11.731,5.457 -2.811,3.108 0.223,2.31 3.156,2.705 5.913,4.242 6.191,4.397 6.454,4.582 6.74,4.719 7.515,5.087 8.208,5 8.66,4.217 9.105,3.446 8.922,2.795 8.151,2.321 5.65,0.785 2.935,0.006 0,0"
             style="fill:#010071;fill-opacity:1;fill-rule:nonzero;stroke:none"
             id="path94" /></g><g
           id="g96"
           transform="translate(681.3164,27.6826)"><path
             d="m 0,0 c 0.011,-0.21 0,-0.604 0.057,-0.986 0.415,-2.811 1.735,-5.031 4.417,-6.167 2.589,-1.097 5.104,-0.756 7.264,1.06 2.421,2.034 2.986,4.781 2.59,7.788 C 13.734,6.22 9.336,9.088 5.069,7.756 2.043,6.811 0.002,3.76 0,0 m 7.278,-10.338 c -5.788,-0.008 -10.039,4.361 -10.05,10.333 -0.013,6.184 4.178,10.704 9.93,10.713 5.75,0.01 10.074,-4.487 10.079,-10.482 0.006,-6.091 -4.203,-10.555 -9.959,-10.564"
             style="fill:#010071;fill-opacity:1;fill-rule:nonzero;stroke:none"
             id="path98" /></g><g
           id="g100"
           transform="translate(714.9346,27.8242)"><path
             d="M 0,0 C 0.071,8.25 7.476,12.8 15.265,9.536 15.952,9.248 16.594,8.839 16.948,8.137 17.279,7.48 17.299,6.816 16.712,6.29 16.104,5.743 15.471,5.907 14.883,6.366 10.599,9.715 4.379,7.529 3.054,2.209 c -1.095,-4.394 1.1,-8.738 5.059,-9.792 2.391,-0.636 4.712,-0.42 6.702,1.273 0.661,0.562 1.36,0.83 2.074,0.164 0.584,-0.543 0.459,-1.409 -0.33,-2.144 -1.548,-1.441 -3.478,-1.988 -5.523,-2.165 C 4.268,-11.041 0.049,-6.217 0,0"
             style="fill:#010071;fill-opacity:1;fill-rule:nonzero;stroke:none"
             id="path102" /></g><g
           id="g104"
           transform="translate(667.0518,28.1416)"><path
             d="m 0,0 c 0,2.092 -0.026,4.184 0.017,6.274 0.012,0.657 -0.167,0.88 -0.826,0.818 -0.596,-0.057 -1.205,-0.031 -1.806,0 -0.83,0.042 -1.33,0.477 -1.329,1.336 0.002,0.824 0.523,1.183 1.284,1.27 0.07,0.008 0.141,-0.001 0.213,0.004 0.769,0.054 1.776,-0.333 2.252,0.162 0.555,0.579 0.131,1.618 0.189,2.454 0.033,0.459 0.007,0.922 0.007,1.383 0,0.893 0.436,1.403 1.334,1.449 0.866,0.045 1.404,-0.5 1.432,-1.47 C 2.795,12.688 2.819,11.691 2.759,10.703 2.712,9.941 2.895,9.605 3.735,9.685 4.578,9.764 5.436,9.715 6.286,9.697 7.173,9.679 7.695,9.208 7.694,8.319 7.692,7.437 7.115,7.088 6.292,7.082 5.335,7.076 4.377,7.054 3.421,7.09 2.91,7.108 2.761,6.945 2.763,6.434 2.785,2.321 2.756,-1.791 2.794,-5.903 2.809,-7.542 3.438,-8.036 5.085,-7.811 5.788,-7.714 6.41,-7.738 6.626,-8.521 6.85,-9.329 6.482,-9.93 5.689,-10.169 3.255,-10.906 0.271,-10.245 0.092,-6.907 -0.032,-4.611 0.067,-2.303 0.067,0 Z"
             style="fill:#010071;fill-opacity:1;fill-rule:nonzero;stroke:none"
             id="path106" /></g><g
           id="g108"
           transform="translate(802.3975,28.083)"><path
             d="M 0,0 C 0,2.127 -0.021,4.254 0.014,6.381 0.023,6.98 -0.142,7.204 -0.75,7.147 -1.277,7.1 -1.812,7.143 -2.345,7.137 c -0.891,-0.01 -1.542,0.298 -1.601,1.291 -0.051,0.86 0.528,1.31 1.651,1.332 0.178,0.004 0.355,10e-4 0.532,10e-4 1.763,0 1.763,0 1.763,1.812 0,0.744 -0.01,1.49 0.003,2.234 0.015,0.895 0.474,1.404 1.377,1.398 0.898,-0.006 1.359,-0.537 1.385,-1.41 C 2.794,12.803 2.817,11.808 2.759,10.818 2.712,10.028 2.89,9.648 3.784,9.742 4.591,9.827 5.413,9.762 6.229,9.76 7.115,9.758 7.665,9.318 7.691,8.432 7.719,7.492 7.107,7.139 6.238,7.139 5.281,7.138 4.323,7.117 3.367,7.146 2.906,7.16 2.762,7.009 2.765,6.546 2.786,2.363 2.763,-1.82 2.809,-6.002 2.824,-7.478 3.452,-7.947 4.922,-7.783 5.412,-7.729 5.904,-7.565 6.333,-7.967 6.946,-8.539 6.753,-9.54 5.935,-10.011 3.576,-11.365 0.315,-9.822 0.118,-7.118 -0.054,-4.757 0.082,-2.373 0.082,0 Z"
             style="fill:#010071;fill-opacity:1;fill-rule:nonzero;stroke:none"
             id="path110" /></g><g
           id="g112"
           transform="translate(593.0635,28.0889)"><path
             d="m 0,0 c 0,2.128 -0.021,4.256 0.015,6.383 0.009,0.602 -0.161,0.81 -0.765,0.76 -0.599,-0.05 -1.205,-0.017 -1.808,-0.006 -0.842,0.016 -1.381,0.478 -1.389,1.29 -0.008,0.804 0.498,1.302 1.354,1.323 0.568,0.013 1.142,0.059 1.7,-0.009 0.785,-0.094 0.952,0.238 0.908,0.95 -0.059,0.954 -0.025,1.914 -0.012,2.872 0.015,1.089 0.481,1.64 1.367,1.648 C 2.262,15.219 2.753,14.66 2.765,13.595 2.776,12.53 2.793,11.466 2.757,10.403 2.739,9.89 2.901,9.726 3.413,9.745 4.369,9.78 5.328,9.76 6.285,9.752 7.184,9.745 7.704,9.264 7.709,8.386 7.713,7.521 7.151,7.139 6.317,7.135 5.396,7.13 4.47,7.081 3.553,7.148 2.855,7.2 2.749,6.934 2.754,6.311 2.781,2.339 2.76,-1.633 2.771,-5.604 2.775,-7.432 3.387,-7.985 5.17,-7.741 5.908,-7.64 6.441,-7.784 6.67,-8.54 6.904,-9.311 6.47,-9.822 5.842,-10.051 3.576,-10.878 0.232,-10.418 0.045,-6.594 -0.062,-4.401 0.025,-2.198 0.025,0 Z"
             style="fill:#010071;fill-opacity:1;fill-rule:nonzero;stroke:none"
             id="path114" /></g><g
           id="g116"
           transform="translate(531.1387,34.3301)"><path
             d="M 0,0 C 1.449,2.201 3.137,3.616 5.536,3.99 6.349,4.116 7.158,4.136 7.937,3.806 8.726,3.472 8.994,2.857 8.729,2.081 8.463,1.294 7.867,0.959 7.056,1.276 5.474,1.895 4.123,1.41 2.931,0.388 c -1.885,-1.616 -3.012,-3.622 -2.998,-6.18 0.015,-2.869 0.005,-5.739 0.001,-8.608 0,-0.353 -0.004,-0.711 -0.067,-1.056 -0.138,-0.774 -0.638,-1.172 -1.414,-1.159 -0.795,0.012 -1.251,0.488 -1.343,1.241 -0.072,0.595 -0.027,1.203 -0.027,1.805 -0.002,4.995 -0.002,9.99 10e-4,14.985 0,0.317 -0.027,0.648 0.05,0.949 0.176,0.683 0.588,1.096 1.36,1.087 0.75,-0.01 1.241,-0.35 1.356,-1.073 C -0.043,1.692 -0.057,0.988 0,0"
             style="fill:#010071;fill-opacity:1;fill-rule:nonzero;stroke:none"
             id="path118" /></g><g
           id="g120"
           transform="translate(740.3262,34.1445)"><path
             d="M 0,0 C 0.82,1.233 1.567,2.146 2.526,2.862 3.823,3.831 5.281,4.268 6.89,4.248 7.361,4.242 7.793,4.11 8.213,3.907 8.971,3.54 9.09,2.895 8.856,2.204 8.622,1.515 8.033,1.161 7.332,1.419 4.808,2.349 3.186,0.975 1.767,-0.767 0.548,-2.263 -0.024,-4.026 -0.007,-5.983 c 0.028,-2.907 0.01,-5.814 0.006,-8.72 -0.001,-1.162 -0.461,-1.734 -1.373,-1.734 -0.894,0 -1.368,0.596 -1.369,1.745 -0.003,5.529 -0.003,11.058 0,16.588 10e-4,1.236 0.381,1.716 1.346,1.734 C -0.398,3.649 -0.004,3.146 0,1.846 0.002,1.329 0,0.812 0,0"
             style="fill:#010071;fill-opacity:1;fill-rule:nonzero;stroke:none"
             id="path122" /></g><g
           id="g124"
           transform="translate(613.9385,118.7158)"><path
             d="m 0,0 c -1.124,-3.728 -5.356,-5.679 -9.012,-4.308 -3.773,1.415 -5.582,5.787 -3.912,9.456 1.538,3.38 5.831,5.142 8.724,3.579 -3.877,-0.371 -5.916,-1.819 -6.455,-4.585 -0.501,-2.574 0.683,-5.094 2.946,-6.27 C -5.134,-3.467 -2.643,-2.807 0,0"
             style="fill:#3deae5;fill-opacity:1;fill-rule:nonzero;stroke:none"
             id="path126" /></g><g
           id="g128"
           transform="translate(600.3584,141.6787)"><path
             d="M 0,0 C 0.923,-2.534 2.448,-3.691 4.647,-3.526 6.465,-3.39 8.009,-2.058 8.406,-0.283 8.87,1.781 7.912,3.508 5.625,4.732 7.756,5.068 10.012,3.037 10.336,0.492 10.701,-2.375 8.627,-4.935 5.65,-5.289 2.715,-5.638 0.315,-3.392 0,0"
             style="fill:#3deae5;fill-opacity:1;fill-rule:nonzero;stroke:none"
             id="path130" /></g><g
           id="g132"
           transform="translate(616.502,155.2187)"><path
             d="m 0,0 c -1.386,-2.063 -4.134,-2.626 -6.276,-1.285 -2.152,1.347 -2.84,4.139 -1.586,6.341 1.322,2.321 4.424,2.95 6.015,1.799 C -3.645,7.053 -5.074,6.581 -6.013,5.068 -6.936,3.581 -6.74,1.733 -5.549,0.452 c 1.181,-1.268 3.042,-1.598 4.576,-0.8 0.282,0.147 0.538,0.34 0.807,0.512 C -0.11,0.109 -0.056,0.055 0,0"
             style="fill:#3deae5;fill-opacity:1;fill-rule:nonzero;stroke:none"
             id="path134" /></g><g
           id="g136"
           transform="translate(594.3574,165.4746)"><path
             d="M 0,0 C 0.824,-0.763 1.714,-1.379 2.918,-1.211 4.426,-0.999 5.51,0.162 5.598,1.637 5.686,3.131 4.778,4.385 3.298,4.799 3.035,4.872 2.762,4.909 2.376,4.987 4.699,5.305 6.478,4.197 6.946,2.24 7.404,0.327 6.308,-1.607 4.423,-2.211 2.565,-2.805 0.69,-1.926 -0.095,-0.091 -0.062,-0.061 -0.031,-0.03 0,0"
             style="fill:#3deae5;fill-opacity:1;fill-rule:nonzero;stroke:none"
             id="path138" /></g><g
           id="g140"
           transform="translate(594.1797,165.9385)"><path
             d="m 0,0 c -0.06,0.071 -0.161,0.141 -0.166,0.216 -0.004,0.07 0.05,0.052 0.056,-0.063 0.003,-0.058 0.06,-0.114 0.092,-0.172 z"
             style="fill:#3deae5;fill-opacity:1;fill-rule:nonzero;stroke:none"
             id="path142" /></g><g
           id="g144"
           transform="translate(610.3877,127.2529)"><path
             d="M 0,0 C -0.032,-0.009 -0.065,-0.026 -0.097,-0.022 -0.126,-0.02 -0.153,0.006 -0.182,0.021 -0.121,0.015 -0.061,0.007 0,0"
             style="fill:#3deae5;fill-opacity:1;fill-rule:nonzero;stroke:none"
             id="path146" /></g><g
           id="g148"
           transform="translate(616.6738,155.6865)"><path
             d="m 0,0 c 0.113,-0.219 0.002,-0.354 -0.172,-0.468 -0.056,0.055 -0.11,0.11 -0.166,0.164 0.118,0.094 0.236,0.187 0.355,0.281 z"
             style="fill:#3deae5;fill-opacity:1;fill-rule:nonzero;stroke:none"
             id="path150" /></g><g
           id="g152"
           transform="translate(594.2627,165.3838)"><path
             d="M 0,0 C -0.179,0.161 -0.122,0.358 -0.084,0.553 L -0.101,0.536 C -0.035,0.389 0.03,0.239 0.095,0.091 0.063,0.061 0.032,0.03 0,0"
             style="fill:#3deae5;fill-opacity:1;fill-rule:nonzero;stroke:none"
             id="path154" /></g><g
           id="g156"
           transform="translate(584.4561,36.8242)"><path
             d="M 0,0 -0.001,0.004 Z"
             style="fill:#3deae5;fill-opacity:1;fill-rule:nonzero;stroke:none"
             id="path158" /></g><g
           id="g160"
           transform="translate(614.0801,118.9541)"><path
             d="m 0,0 c -0.021,-0.021 -0.04,-0.04 -0.06,-0.061 -0.017,0.023 -0.049,0.046 -0.048,0.068 0.002,0.02 0.036,0.04 0.056,0.059 C -0.034,0.044 -0.017,0.021 0,0"
             style="fill:#3deae5;fill-opacity:1;fill-rule:nonzero;stroke:none"
             id="path162" /></g><g
           id="g164"
           transform="translate(616.6904,155.6631)"><path
             d="M 0,0 C 0.03,0.05 0.06,0.101 0.09,0.15 0.104,0.109 0.12,0.068 0.135,0.027 0.085,0.025 0.034,0.024 -0.017,0.023 Z"
             style="fill:#3deae5;fill-opacity:1;fill-rule:nonzero;stroke:none"
             id="path166" /></g><g
           id="g168"
           transform="translate(584.4385,18.7314)"><path
             d="M 0,0 -0.001,0.005 Z"
             style="fill:#3deae5;fill-opacity:1;fill-rule:nonzero;stroke:none"
             id="path170" /></g></g></g></g></svg>
