<?xml version="1.0" encoding="UTF-8" standalone="no"?>
<svg
   xmlns:dc="http://purl.org/dc/elements/1.1/"
   xmlns:cc="http://creativecommons.org/ns#"
   xmlns:rdf="http://www.w3.org/1999/02/22-rdf-syntax-ns#"
   xmlns:svg="http://www.w3.org/2000/svg"
   xmlns="http://www.w3.org/2000/svg"
   viewBox="0 0 166.20534 166.20534"
   height="166.20534"
   width="166.20534"
   xml:space="preserve"
   id="svg2"
   version="1.1"><metadata
     id="metadata8"><rdf:RDF><cc:Work
         rdf:about=""><dc:format>image/svg+xml</dc:format><dc:type
           rdf:resource="http://purl.org/dc/dcmitype/StillImage" /></cc:Work></rdf:RDF></metadata><defs
     id="defs6"><clipPath
       id="clipPath18"
       clipPathUnits="userSpaceOnUse"><path
         id="path16"
         d="M 0,124.654 H 124.654 V 0 H 0 Z" /></clipPath></defs><g
     transform="matrix(1.3333333,0,0,-1.3333333,0,166.20533)"
     id="g10"><g
       id="g12"><g
         clip-path="url(#clipPath18)"
         id="g14"><g
           transform="translate(96.3692,14.8943)"
           id="g20"><path
             id="path22"
             style="fill:#4BC71E;fill-opacity:1;fill-rule:nonzero;stroke:none"
             d="M 0,0 24.1,41.873 C 22.466,24.655 13.328,9.593 0,0 m -57.954,-5.853 h 6.36 c 0.627,-0.067 1.278,-0.111 1.977,-0.111 0.358,0 0.727,0.009 1.105,0.027 0.388,0.018 0.791,0.046 1.201,0.083 0.039,-0.001 0.082,0.002 0.121,0.001 h 25.015 c 0.038,10e-4 0.078,-0.001 0.115,-0.001 0.41,-0.037 0.814,-0.065 1.201,-0.083 1.143,-0.054 2.194,-0.024 3.162,0.084 h 7.566 c -7.302,-3.289 -15.396,-5.122 -23.911,-5.122 -8.515,0 -16.609,1.833 -23.912,5.122 M -92.184,41.873 -68.084,0 c -13.328,9.593 -22.466,24.655 -24.1,41.873 m 24.1,52.993 -24.1,-41.873 c 1.634,17.217 10.772,32.28 24.1,41.873 m 57.953,5.853 h -7.509 c -0.967,0.107 -2.016,0.137 -3.158,0.084 -0.387,-0.018 -0.79,-0.046 -1.201,-0.083 -0.034,0 -0.071,-0.002 -0.105,-0.001 h -25.047 c -0.032,-10e-4 -0.068,0.001 -0.1,0.001 -0.411,0.037 -0.814,0.065 -1.201,0.083 -1.142,0.053 -2.193,0.024 -3.161,-0.084 h -6.34 c 7.302,3.289 15.396,5.122 23.911,5.122 8.515,0 16.609,-1.833 23.911,-5.122 M 24.1,52.993 0,94.866 C 13.328,85.273 22.466,70.21 24.1,52.993 M 15.062,34.026 C 14.045,38.081 10.493,41.911 4.449,45.473 H 21.65 Z M -2.542,13.181 c 1.727,0.782 5.005,2.391 8.29,4.663 L -2.542,3.44 Z m -7.262,-12.909 1.27,-2.205 h -2.173 c 0.402,0.663 0.701,1.402 0.903,2.205 m -49.763,0 c 0.202,-0.803 0.502,-1.542 0.903,-2.205 h -2.173 z m -5.975,12.909 V 3.44 l -8.29,14.404 c 3.285,-2.272 6.562,-3.881 8.29,-4.663 m -6.991,32.292 c -6.044,-3.562 -9.596,-7.392 -10.613,-11.447 l -6.588,11.447 z m -11.465,13.886 c 1.206,-2.831 4.265,-5.731 9.265,-8.784 0.679,-0.415 1.358,-0.809 2.026,-1.183 h -17.027 z m 18.456,14.169 C -70.77,72.533 -74.87,71.35 -77.906,69.944 l 12.364,21.482 z m 6.017,20.992 -1.312,2.279 h 2.234 c -0.414,-0.684 -0.72,-1.447 -0.922,-2.279 m 49.764,0.147 c -0.202,0.775 -0.496,1.489 -0.886,2.132 h 2.113 z M -2.542,73.528 V 91.426 L 9.821,69.944 C 6.786,71.35 2.685,72.533 -2.542,73.528 M 6.649,50.575 c 4.999,3.053 8.059,5.953 9.265,8.784 L 21.65,49.392 H 4.623 c 0.667,0.374 1.346,0.768 2.026,1.183 m -28.837,-28.785 5.141,-8.932 c -11.492,-0.078 -14.63,1.789 -15.41,2.517 1.514,1.588 5.983,4.267 10.269,6.415 M -41.8,23.392 h 14.229 c -2.543,-1.41 -5.308,-3.123 -7.114,-4.765 -1.807,1.642 -4.572,3.355 -7.115,4.765 m -5.383,-1.602 c 4.286,-2.147 8.755,-4.826 10.269,-6.415 -0.78,-0.728 -3.917,-2.595 -15.41,-2.517 z m -10.206,61.161 0.553,-1.057 0.055,0.002 18.707,-32.504 h -23.549 v 40.916 z m 10.219,-9.898 -5.153,8.954 c 11.541,0.086 14.688,-1.787 15.469,-2.516 -1.52,-1.594 -6.015,-4.287 -10.316,-6.438 m 19.659,-1.58 h -14.228 c 2.542,1.411 5.307,3.124 7.114,4.766 1.807,-1.642 4.572,-3.355 7.114,-4.766 m 5.337,1.626 c -4.272,2.143 -8.714,4.809 -10.222,6.392 0.779,0.727 3.906,2.589 15.349,2.517 z m -10.491,-33.105 7.299,-12.682 h -7.299 z m -11.34,-12.682 7.42,12.893 V 27.312 Z m 7.36,27.454 -7.36,12.788 h 7.36 z m 11.279,12.788 -7.36,-12.787 V 67.554 Z M 12.578,62.365 C 12.805,60.236 9.913,57.167 4.644,53.943 1.98,52.313 -0.747,50.976 -2.542,50.151 v 19.384 c 13.173,-2.615 14.979,-5.851 15.12,-7.17 m -24.992,19.529 0.572,1.094 c 0.206,0.395 0.4,0.804 0.584,1.222 l 4.797,8.333 V 49.392 H -31.297 L -12.587,81.9 Z M -80.662,62.365 c 0.141,1.319 1.947,4.555 15.12,7.17 V 50.151 c -1.795,0.825 -4.522,2.162 -7.186,3.792 -5.27,3.224 -8.161,6.293 -7.934,8.422 m 1.128,-30.863 c -0.046,4.389 4.782,8.931 13.992,13.198 V 17.506 c -5.447,2.696 -13.932,8.135 -13.992,13.996 m 22.638,-18.53 -0.572,-1.094 c -0.126,-0.24 -0.247,-0.485 -0.365,-0.734 l -3.79,-6.586 v 40.915 h 23.549 L -56.783,12.968 Z m 45.358,-1.828 c -0.118,0.249 -0.239,0.494 -0.365,0.734 l -0.572,1.094 -0.113,-0.004 -18.708,32.505 H -6.461 V 2.322 Z m 8.996,6.365 V 44.7 C 6.665,40.434 11.493,35.893 11.45,31.505 11.393,25.656 2.906,20.21 -2.542,17.509 m -33.86,79.29 h 3.553 c -0.651,-0.598 -1.255,-1.271 -1.776,-2.043 -0.521,0.772 -1.125,1.445 -1.777,2.043 m -11.017,0 0.018,-0.001 0.089,0.001 h 0.064 c 0.32,-0.003 2.594,-0.046 4.958,-0.934 3.232,-1.213 5.141,-3.418 5.673,-6.551 l 0.277,-1.631 h 3.43 l 0.277,1.631 c 1.238,7.284 9.713,7.478 10.608,7.485 h 0.086 l 0.09,-0.001 0.018,0.001 h 3.961 c 1.534,-0.197 2.665,-0.667 3.409,-1.429 1.35,-1.384 1.222,-3.783 0.878,-5.552 -0.259,-1.329 -0.662,-2.633 -1.177,-3.836 l -0.051,-0.088 c -10.256,0.263 -16.771,-0.769 -19.814,-3.145 -2.735,2.135 -8.275,3.185 -16.812,3.185 -0.968,0 -1.973,-0.014 -3.018,-0.041 -0.533,1.228 -0.946,2.564 -1.212,3.925 -0.344,1.769 -0.472,4.167 0.878,5.552 0.744,0.762 1.877,1.232 3.413,1.429 z M -32.91,-1.933 h -3.552 c 0.652,0.598 1.256,1.271 1.777,2.043 0.521,-0.772 1.124,-1.445 1.775,-2.043 m 11.021,0 -0.02,0.001 -0.092,-0.001 h -0.084 c -0.383,0.003 -2.613,0.061 -4.936,0.933 -3.232,1.214 -5.14,3.418 -5.672,6.551 l -0.277,1.632 h -3.431 l -0.277,-1.632 c -1.225,-7.215 -9.552,-7.476 -10.576,-7.484 h -0.116 l -0.092,0.001 -0.02,-0.001 h -3.967 c -1.53,0.198 -2.658,0.668 -3.4,1.429 -1.35,1.384 -1.223,3.783 -0.878,5.552 0.265,1.361 0.679,2.697 1.212,3.924 10.26,-0.262 16.785,0.768 19.83,3.145 3.044,-2.377 9.569,-3.407 19.829,-3.145 0.533,-1.226 0.947,-2.563 1.212,-3.924 0.345,-1.769 0.472,-4.168 -0.878,-5.552 -0.742,-0.761 -1.871,-1.231 -3.403,-1.429 z M -34.042,109.76 c -34.367,0 -62.327,-27.96 -62.327,-62.327 0,-34.367 27.96,-62.327 62.327,-62.327 34.367,0 62.327,27.96 62.327,62.327 0,34.367 -27.96,62.327 -62.327,62.327" /></g></g></g></g></svg>