<?xml version="1.0" encoding="utf-8"?>
<!-- Generator: Adobe Illustrator 22.0.1, SVG Export Plug-In . SVG Version: 6.00 Build 0)  -->
<svg version="1.1" id="Layer_1" xmlns="http://www.w3.org/2000/svg" xmlns:xlink="http://www.w3.org/1999/xlink" x="0px" y="0px"
	 viewBox="0 0 113 57" style="enable-background:new 0 0 113 57;" xml:space="preserve">
<style type="text/css">
	.st0{fill:#FFFFFF;}
</style>
<g>
	<path class="st0" d="M33.3,7.3l6-1.4v28.8c0,3.2,0.9,5,2.8,5.6c-0.9,1.8-2.5,2.6-4.7,2.6c-2.7,0-4.1-1.9-4.1-5.6V7.3z"/>
	<g>
		<g>
			<path class="st0" d="M90.9,42h-6.5V27.4v-1.3c0-1.5-0.5-2.6-1.4-3.3c-0.9-0.7-1.9-1-3-1c-1.1,0-2.1,0.3-3,1
				c-0.9,0.7-1.3,1.8-1.3,3.3V42h-6.1V27.4c0-4.2,0.9-6.8,2.9-8.5c2-1.8,4.5-2.6,7.3-2.6c4.2,0,7,2.4,7.8,3.4c0.8-1,4-3.4,7.4-3.4
				c2.7,0,5.6,0.5,7.6,2.4c2.3,2.1,3.1,4.4,3.1,8.8l0.1,14.5h-3.2c-1.6,0-2.9-1.3-2.9-2.9l-0.1-13c0-1.5-0.5-2.6-1.4-3.3
				c-0.9-0.7-1.9-1-3-1c-1.1,0-2.1,0.3-3,1c-0.9,0.7-1.4,1.8-1.4,3.3v1.3V42z"/>
		</g>
		<path class="st0" d="M12.3,41.2V49c0,1.6-1.3,2.9-2.9,2.9l-3.1,0v-34l6-1.6V18c1.9-1.3,4.4-2.2,6.5-2.2c6.7,0,11.2,4.5,11.2,13.5
			c0,4.2-1.1,7.4-3.4,9.7c-2.3,2.3-5.3,3.4-9.2,3.4C15.6,42.3,13.9,41.9,12.3,41.2z M12.3,22.5V36c1.1,0.9,2.3,1.3,3.8,1.3
			c2.8,0,4.7-0.7,5.9-2c1.2-1.3,1.8-3.4,1.8-6.2c0-3-0.6-5.2-1.8-6.4c-1.2-1.2-2.6-2-5.3-2C15.4,20.6,13.4,21.4,12.3,22.5z"/>
		<path class="st0" d="M59.8,41.9v-2.1c-0.8,0.7-2,1.3-3.5,1.8c-1.5,0.5-2.8,0.8-4.1,0.8c-5.9,0-8.9-3.2-8.9-9.5V16.3h6v16.1
			c0,3.3,1.5,4.9,4.4,4.9c1.4,0,2.6-0.3,3.8-1.1c1.2-0.7,1.9-1.5,2.3-2.4V16.3h6v25.6H59.8z"/>
	</g>
</g>
</svg>
