<svg xmlns="http://www.w3.org/2000/svg" xmlns:xlink="http://www.w3.org/1999/xlink" width="400" zoomAndPan="magnify" viewBox="0 0 375 374.999991" height="400" preserveAspectRatio="xMidYMid meet" version="1.0"><defs><g/><clipPath id="e9afbe354c"><path d="M 221 130 L 260.503906 130 L 260.503906 162 L 221 162 Z M 221 130 " clip-rule="nonzero"/></clipPath><clipPath id="a42670385d"><path d="M 195 194 L 249 194 L 249 213.175781 L 195 213.175781 Z M 195 194 " clip-rule="nonzero"/></clipPath><clipPath id="7d55125146"><path d="M 114.488281 126 L 195 126 L 195 154 L 114.488281 154 Z M 114.488281 126 " clip-rule="nonzero"/></clipPath><clipPath id="b857143f84"><path d="M 148 52.933594 L 179 52.933594 L 179 72 L 148 72 Z M 148 52.933594 " clip-rule="nonzero"/></clipPath></defs><path fill="#fbae40" d="M 253.835938 94.347656 C 247.972656 99.429688 239.246094 105.035156 228.433594 110.558594 L 233.765625 125.203125 C 243.992188 119.664062 252.714844 113.726562 258.734375 107.800781 L 253.835938 94.347656 " fill-opacity="1" fill-rule="nonzero"/><path fill="#f5821f" d="M 206.445312 104.851562 C 217.105469 99.96875 226.757812 94.53125 234.078125 89.078125 L 229.402344 76.246094 C 222.671875 81.183594 213.105469 86.515625 201.585938 91.511719 L 206.445312 104.851562 " fill-opacity="1" fill-rule="nonzero"/><path fill="#fbae40" d="M 176.640625 75.429688 L 180.753906 86.714844 C 188.921875 83.660156 197.054688 79.851562 204.335938 75.40625 C 204.664062 75.210938 204.984375 75.011719 205.304688 74.808594 L 201.410156 64.109375 C 195.027344 67.996094 186.433594 72.035156 176.640625 75.429688 " fill-opacity="1" fill-rule="nonzero"/><path fill="#f5821f" d="M 242.363281 167.3125 C 234.847656 170.964844 226.421875 174.546875 217.320312 177.867188 L 221.136719 188.355469 C 229.84375 185.078125 238.324219 181.296875 245.960938 177.199219 L 242.363281 167.3125 " fill-opacity="1" fill-rule="nonzero"/><g clip-path="url(#e9afbe354c)"><path fill="#f5821f" d="M 255.726562 130.023438 C 246.742188 135.699219 235.179688 141.617188 221.847656 147.148438 L 227.015625 161.339844 C 239.777344 155.898438 251.484375 149.648438 260.46875 143.042969 L 255.726562 130.023438 " fill-opacity="1" fill-rule="nonzero"/></g><path fill="#f5821f" d="M 222.71875 113.378906 C 214.308594 117.386719 204.847656 121.292969 194.644531 124.863281 L 200.1875 140.082031 C 209.902344 136.558594 219.421875 132.507812 228.101562 128.152344 L 222.71875 113.378906 " fill-opacity="1" fill-rule="nonzero"/><path fill="#fbae40" d="M 188.199219 174.5625 C 199.105469 171.722656 210.402344 168.035156 221.15625 163.757812 L 215.96875 149.515625 C 205.785156 153.496094 194.707031 157.21875 183.050781 160.429688 L 188.199219 174.5625 " fill-opacity="1" fill-rule="nonzero"/><path fill="#fbae40" d="M 211.347656 179.976562 C 204.144531 182.433594 196.578125 184.71875 188.75 186.734375 C 170.289062 191.222656 146.441406 195.089844 137.652344 188.039062 C 140 190.332031 143.269531 193.242188 145.761719 195.371094 L 148.542969 197.476562 C 158.351562 204.425781 187.203125 200.207031 215.183594 190.507812 L 211.347656 179.976562 " fill-opacity="1" fill-rule="nonzero"/><g clip-path="url(#a42670385d)"><path fill="#fbae40" d="M 212.179688 210.742188 C 205.054688 212.460938 200.847656 213.0625 195.507812 213.136719 C 198.046875 213.179688 198.230469 213.171875 202.859375 212.933594 C 204.960938 212.777344 205.175781 212.75 208.761719 212.292969 C 210.386719 212.050781 210.503906 212.03125 213.46875 211.460938 C 214.832031 211.179688 214.933594 211.15625 217.472656 210.53125 C 218.6875 210.21875 218.730469 210.203125 221.066406 209.515625 C 222.210938 209.164062 222.25 209.152344 224.460938 208.394531 C 225.585938 207.992188 225.585938 207.992188 227.816406 207.117188 C 228.980469 206.644531 228.980469 206.644531 231.304688 205.609375 C 232.582031 205.019531 232.582031 205.019531 235.125 203.726562 C 241.5625 200.363281 246.175781 196.757812 248.933594 194.601562 C 245.933594 196.929688 234.425781 204.960938 212.179688 210.742188 " fill-opacity="1" fill-rule="nonzero"/></g><g clip-path="url(#7d55125146)"><path fill="#fbae40" d="M 123.34375 151.347656 C 137.226562 156.488281 165.996094 151.699219 194.210938 142.171875 L 188.648438 126.894531 C 182.277344 128.984375 175.652344 130.929688 168.84375 132.675781 C 136.621094 140.542969 115.808594 139.644531 114.523438 130.34375 L 114.527344 131.835938 C 114.695312 135.421875 115.125 140.195312 115.554688 143.761719 C 116.058594 145.707031 116.90625 148.960938 123.34375 151.347656 " fill-opacity="1" fill-rule="nonzero"/></g><path fill="#f5821f" d="M 176.902344 162.050781 C 145.683594 169.597656 125.140625 169.429688 120.5 161.570312 C 122.03125 166.816406 124.222656 173.113281 129.382812 176.882812 C 137.414062 182.738281 158.289062 181.640625 182.015625 176.089844 L 176.902344 162.050781 " fill-opacity="1" fill-rule="nonzero"/><path fill="#f5821f" d="M 144.042969 123.054688 C 160.6875 121.550781 181.792969 115.4375 200.636719 107.417969 L 195.734375 93.949219 C 186.195312 97.773438 175.546875 101.316406 164.214844 104.21875 C 140.0625 110.128906 117.191406 111.109375 120.539062 99.980469 C 120.539062 99.980469 117.21875 106.710938 116.714844 112.007812 C 115.511719 124.609375 135.007812 123.871094 144.042969 123.054688 " fill-opacity="1" fill-rule="nonzero"/><path fill="#f5821f" d="M 174.777344 88.8125 L 170.617188 77.382812 C 168.382812 78.058594 166.101562 78.699219 163.785156 79.292969 C 159.289062 80.398438 152.542969 81.890625 145.882812 82.09375 C 142.015625 82.214844 130.019531 81.921875 138.113281 73.125 C 135.484375 75.832031 135.328125 76.027344 131.332031 80.980469 L 130.242188 82.453125 C 129.285156 83.902344 128.300781 85.402344 127.925781 87.171875 C 125.679688 97.847656 149.453125 97.136719 174.777344 88.8125 " fill-opacity="1" fill-rule="nonzero"/><g clip-path="url(#b857143f84)"><path fill="#fbae40" d="M 178.4375 64.964844 L 175.84375 57.839844 C 173.421875 58.925781 170.617188 59.917969 167.738281 60.628906 C 161.816406 62.136719 159.828125 61.34375 159.359375 61.066406 C 157.304688 59.847656 161.398438 56.207031 170.5625 52.933594 C 159.464844 56.371094 148.777344 63.351562 148.136719 67.582031 C 147.203125 73.78125 164.539062 71.328125 178.4375 64.964844 " fill-opacity="1" fill-rule="nonzero"/></g><path fill="#f5821f" d="M 234.765625 191.875 C 226.898438 195.253906 218.015625 198.476562 208.378906 201.292969 L 210.667969 207.578125 C 219.515625 205.136719 228.625 201.71875 236.902344 197.738281 L 234.765625 191.875 " fill-opacity="1" fill-rule="nonzero"/><path fill="#f5821f" d="M 202.261719 203 C 201.75 203.136719 201.238281 203.269531 200.726562 203.402344 C 174.066406 209.863281 165.8125 206.867188 163.097656 205.886719 C 164.972656 206.714844 167.53125 207.671875 169.4375 208.425781 C 171.988281 209.265625 175.441406 210.246094 178.039062 210.949219 C 184.964844 212.25 194.371094 211.421875 204.496094 209.128906 L 202.261719 203 " fill-opacity="1" fill-rule="nonzero"/><g fill="#000000" fill-opacity="1"><g transform="translate(123.33855, 274.015356)"><g><path d="M 22.0625 -9.53125 C 22.0625 -10.9375 21.5625 -12.015625 20.5625 -12.765625 C 19.570312 -13.523438 17.78125 -14.328125 15.1875 -15.171875 C 12.59375 -16.015625 10.539062 -16.84375 9.03125 -17.65625 C 4.90625 -19.882812 2.84375 -22.882812 2.84375 -26.65625 C 2.84375 -28.613281 3.394531 -30.359375 4.5 -31.890625 C 5.601562 -33.429688 7.1875 -34.632812 9.25 -35.5 C 11.320312 -36.363281 13.648438 -36.796875 16.234375 -36.796875 C 18.828125 -36.796875 21.132812 -36.328125 23.15625 -35.390625 C 25.1875 -34.453125 26.765625 -33.125 27.890625 -31.40625 C 29.015625 -29.695312 29.578125 -27.753906 29.578125 -25.578125 L 22.09375 -25.578125 C 22.09375 -27.242188 21.566406 -28.535156 20.515625 -29.453125 C 19.472656 -30.378906 18.003906 -30.84375 16.109375 -30.84375 C 14.273438 -30.84375 12.851562 -30.453125 11.84375 -29.671875 C 10.832031 -28.898438 10.328125 -27.882812 10.328125 -26.625 C 10.328125 -25.445312 10.921875 -24.457031 12.109375 -23.65625 C 13.296875 -22.863281 15.046875 -22.117188 17.359375 -21.421875 C 21.609375 -20.140625 24.707031 -18.550781 26.65625 -16.65625 C 28.601562 -14.757812 29.578125 -12.398438 29.578125 -9.578125 C 29.578125 -6.429688 28.382812 -3.960938 26 -2.171875 C 23.625 -0.390625 20.425781 0.5 16.40625 0.5 C 13.613281 0.5 11.066406 -0.0078125 8.765625 -1.03125 C 6.472656 -2.050781 4.722656 -3.453125 3.515625 -5.234375 C 2.316406 -7.015625 1.71875 -9.078125 1.71875 -11.421875 L 9.21875 -11.421875 C 9.21875 -7.410156 11.613281 -5.40625 16.40625 -5.40625 C 18.1875 -5.40625 19.570312 -5.765625 20.5625 -6.484375 C 21.5625 -7.210938 22.0625 -8.226562 22.0625 -9.53125 Z M 22.0625 -9.53125 "/></g></g></g><g fill="#000000" fill-opacity="1"><g transform="translate(155.541452, 274.015356)"><g><path d="M 23.734375 -7.484375 L 10.625 -7.484375 L 8.125 0 L 0.171875 0 L 13.6875 -36.296875 L 20.625 -36.296875 L 34.203125 0 L 26.25 0 Z M 12.640625 -13.53125 L 21.71875 -13.53125 L 17.15625 -27.125 Z M 12.640625 -13.53125 "/></g></g></g><g fill="#000000" fill-opacity="1"><g transform="translate(190.71091, 274.015356)"><g><path d="M 22.0625 -9.53125 C 22.0625 -10.9375 21.5625 -12.015625 20.5625 -12.765625 C 19.570312 -13.523438 17.78125 -14.328125 15.1875 -15.171875 C 12.59375 -16.015625 10.539062 -16.84375 9.03125 -17.65625 C 4.90625 -19.882812 2.84375 -22.882812 2.84375 -26.65625 C 2.84375 -28.613281 3.394531 -30.359375 4.5 -31.890625 C 5.601562 -33.429688 7.1875 -34.632812 9.25 -35.5 C 11.320312 -36.363281 13.648438 -36.796875 16.234375 -36.796875 C 18.828125 -36.796875 21.132812 -36.328125 23.15625 -35.390625 C 25.1875 -34.453125 26.765625 -33.125 27.890625 -31.40625 C 29.015625 -29.695312 29.578125 -27.753906 29.578125 -25.578125 L 22.09375 -25.578125 C 22.09375 -27.242188 21.566406 -28.535156 20.515625 -29.453125 C 19.472656 -30.378906 18.003906 -30.84375 16.109375 -30.84375 C 14.273438 -30.84375 12.851562 -30.453125 11.84375 -29.671875 C 10.832031 -28.898438 10.328125 -27.882812 10.328125 -26.625 C 10.328125 -25.445312 10.921875 -24.457031 12.109375 -23.65625 C 13.296875 -22.863281 15.046875 -22.117188 17.359375 -21.421875 C 21.609375 -20.140625 24.707031 -18.550781 26.65625 -16.65625 C 28.601562 -14.757812 29.578125 -12.398438 29.578125 -9.578125 C 29.578125 -6.429688 28.382812 -3.960938 26 -2.171875 C 23.625 -0.390625 20.425781 0.5 16.40625 0.5 C 13.613281 0.5 11.066406 -0.0078125 8.765625 -1.03125 C 6.472656 -2.050781 4.722656 -3.453125 3.515625 -5.234375 C 2.316406 -7.015625 1.71875 -9.078125 1.71875 -11.421875 L 9.21875 -11.421875 C 9.21875 -7.410156 11.613281 -5.40625 16.40625 -5.40625 C 18.1875 -5.40625 19.570312 -5.765625 20.5625 -6.484375 C 21.5625 -7.210938 22.0625 -8.226562 22.0625 -9.53125 Z M 22.0625 -9.53125 "/></g></g></g><g fill="#000000" fill-opacity="1"><g transform="translate(222.913817, 274.015356)"><g><path d="M 25.078125 -15.734375 L 10.71875 -15.734375 L 10.71875 -6.015625 L 27.578125 -6.015625 L 27.578125 0 L 3.234375 0 L 3.234375 -36.296875 L 27.53125 -36.296875 L 27.53125 -30.25 L 10.71875 -30.25 L 10.71875 -21.59375 L 25.078125 -21.59375 Z M 25.078125 -15.734375 "/></g></g></g><g fill="#2c3892" fill-opacity="1"><g transform="translate(55.425785, 305.429365)"><g><path d="M 4.28125 -5.109375 L 4.28125 0 L 1.296875 0 L 1.296875 -14.515625 L 6.953125 -14.515625 C 8.046875 -14.515625 9.003906 -14.316406 9.828125 -13.921875 C 10.660156 -13.523438 11.300781 -12.957031 11.75 -12.21875 C 12.195312 -11.488281 12.421875 -10.65625 12.421875 -9.71875 C 12.421875 -8.289062 11.929688 -7.164062 10.953125 -6.34375 C 9.984375 -5.519531 8.632812 -5.109375 6.90625 -5.109375 Z M 4.28125 -7.53125 L 6.953125 -7.53125 C 7.742188 -7.53125 8.347656 -7.71875 8.765625 -8.09375 C 9.179688 -8.46875 9.390625 -9 9.390625 -9.6875 C 9.390625 -10.40625 9.179688 -10.984375 8.765625 -11.421875 C 8.347656 -11.859375 7.769531 -12.082031 7.03125 -12.09375 L 4.28125 -12.09375 Z M 4.28125 -7.53125 "/></g></g></g><g fill="#2c3892" fill-opacity="1"><g transform="translate(71.825918, 305.429365)"><g><path d="M 13.21875 -6.9375 C 13.21875 -5.5 12.960938 -4.242188 12.453125 -3.171875 C 11.953125 -2.097656 11.234375 -1.265625 10.296875 -0.671875 C 9.359375 -0.0859375 8.28125 0.203125 7.0625 0.203125 C 5.851562 0.203125 4.773438 -0.0820312 3.828125 -0.65625 C 2.890625 -1.238281 2.160156 -2.066406 1.640625 -3.140625 C 1.128906 -4.210938 0.867188 -5.445312 0.859375 -6.84375 L 0.859375 -7.5625 C 0.859375 -9 1.113281 -10.257812 1.625 -11.34375 C 2.144531 -12.425781 2.875 -13.257812 3.8125 -13.84375 C 4.75 -14.425781 5.820312 -14.71875 7.03125 -14.71875 C 8.25 -14.71875 9.328125 -14.425781 10.265625 -13.84375 C 11.203125 -13.257812 11.925781 -12.425781 12.4375 -11.34375 C 12.957031 -10.257812 13.21875 -9.003906 13.21875 -7.578125 Z M 10.1875 -7.59375 C 10.1875 -9.113281 9.914062 -10.269531 9.375 -11.0625 C 8.832031 -11.851562 8.054688 -12.25 7.046875 -12.25 C 6.035156 -12.25 5.257812 -11.859375 4.71875 -11.078125 C 4.175781 -10.296875 3.898438 -9.148438 3.890625 -7.640625 L 3.890625 -6.9375 C 3.890625 -5.445312 4.160156 -4.289062 4.703125 -3.46875 C 5.253906 -2.65625 6.039062 -2.25 7.0625 -2.25 C 8.0625 -2.25 8.832031 -2.640625 9.375 -3.421875 C 9.914062 -4.210938 10.1875 -5.363281 10.1875 -6.875 Z M 10.1875 -7.59375 "/></g></g></g><g fill="#2c3892" fill-opacity="1"><g transform="translate(89.153415, 305.429365)"><g><path d="M 4.484375 0 L 1.484375 0 L 1.484375 -14.515625 L 4.484375 -14.515625 Z M 4.484375 0 "/></g></g></g><g fill="#2c3892" fill-opacity="1"><g transform="translate(98.334072, 305.429365)"><g><path d="M 13.109375 0 L 10.109375 0 L 4.28125 -9.546875 L 4.28125 0 L 1.296875 0 L 1.296875 -14.515625 L 4.28125 -14.515625 L 10.125 -4.953125 L 10.125 -14.515625 L 13.109375 -14.515625 Z M 13.109375 0 "/></g></g></g><g fill="#2c3892" fill-opacity="1"><g transform="translate(115.980661, 305.429365)"><g><path d="M 12.21875 -12.09375 L 7.78125 -12.09375 L 7.78125 0 L 4.78125 0 L 4.78125 -12.09375 L 0.40625 -12.09375 L 0.40625 -14.515625 L 12.21875 -14.515625 Z M 12.21875 -12.09375 "/></g></g></g><g fill="#2c3892" fill-opacity="1"><g transform="translate(131.842323, 305.429365)"><g><path d="M 8.828125 -3.8125 C 8.828125 -4.375 8.625 -4.804688 8.21875 -5.109375 C 7.820312 -5.410156 7.101562 -5.726562 6.0625 -6.0625 C 5.03125 -6.40625 4.210938 -6.738281 3.609375 -7.0625 C 1.960938 -7.945312 1.140625 -9.144531 1.140625 -10.65625 C 1.140625 -11.445312 1.359375 -12.148438 1.796875 -12.765625 C 2.242188 -13.378906 2.878906 -13.859375 3.703125 -14.203125 C 4.535156 -14.546875 5.460938 -14.71875 6.484375 -14.71875 C 7.523438 -14.71875 8.453125 -14.53125 9.265625 -14.15625 C 10.078125 -13.78125 10.707031 -13.25 11.15625 -12.5625 C 11.601562 -11.875 11.828125 -11.097656 11.828125 -10.234375 L 8.828125 -10.234375 C 8.828125 -10.898438 8.617188 -11.414062 8.203125 -11.78125 C 7.785156 -12.144531 7.195312 -12.328125 6.4375 -12.328125 C 5.707031 -12.328125 5.140625 -12.171875 4.734375 -11.859375 C 4.328125 -11.554688 4.125 -11.15625 4.125 -10.65625 C 4.125 -10.175781 4.359375 -9.773438 4.828125 -9.453125 C 5.304688 -9.140625 6.007812 -8.84375 6.9375 -8.5625 C 8.644531 -8.050781 9.882812 -7.414062 10.65625 -6.65625 C 11.4375 -5.90625 11.828125 -4.960938 11.828125 -3.828125 C 11.828125 -2.566406 11.347656 -1.578125 10.390625 -0.859375 C 9.441406 -0.148438 8.164062 0.203125 6.5625 0.203125 C 5.445312 0.203125 4.429688 0 3.515625 -0.40625 C 2.597656 -0.820312 1.894531 -1.382812 1.40625 -2.09375 C 0.925781 -2.800781 0.6875 -3.625 0.6875 -4.5625 L 3.6875 -4.5625 C 3.6875 -2.957031 4.644531 -2.15625 6.5625 -2.15625 C 7.269531 -2.15625 7.820312 -2.300781 8.21875 -2.59375 C 8.625 -2.882812 8.828125 -3.289062 8.828125 -3.8125 Z M 8.828125 -3.8125 "/></g></g></g><g fill="#2c3892" fill-opacity="1"><g transform="translate(147.624218, 305.429365)"><g/></g></g><g fill="#2c3892" fill-opacity="1"><g transform="translate(155.937338, 305.429365)"><g><path d="M 13.21875 -6.9375 C 13.21875 -5.5 12.960938 -4.242188 12.453125 -3.171875 C 11.953125 -2.097656 11.234375 -1.265625 10.296875 -0.671875 C 9.359375 -0.0859375 8.28125 0.203125 7.0625 0.203125 C 5.851562 0.203125 4.773438 -0.0820312 3.828125 -0.65625 C 2.890625 -1.238281 2.160156 -2.066406 1.640625 -3.140625 C 1.128906 -4.210938 0.867188 -5.445312 0.859375 -6.84375 L 0.859375 -7.5625 C 0.859375 -9 1.113281 -10.257812 1.625 -11.34375 C 2.144531 -12.425781 2.875 -13.257812 3.8125 -13.84375 C 4.75 -14.425781 5.820312 -14.71875 7.03125 -14.71875 C 8.25 -14.71875 9.328125 -14.425781 10.265625 -13.84375 C 11.203125 -13.257812 11.925781 -12.425781 12.4375 -11.34375 C 12.957031 -10.257812 13.21875 -9.003906 13.21875 -7.578125 Z M 10.1875 -7.59375 C 10.1875 -9.113281 9.914062 -10.269531 9.375 -11.0625 C 8.832031 -11.851562 8.054688 -12.25 7.046875 -12.25 C 6.035156 -12.25 5.257812 -11.859375 4.71875 -11.078125 C 4.175781 -10.296875 3.898438 -9.148438 3.890625 -7.640625 L 3.890625 -6.9375 C 3.890625 -5.445312 4.160156 -4.289062 4.703125 -3.46875 C 5.253906 -2.65625 6.039062 -2.25 7.0625 -2.25 C 8.0625 -2.25 8.832031 -2.640625 9.375 -3.421875 C 9.914062 -4.210938 10.1875 -5.363281 10.1875 -6.875 Z M 10.1875 -7.59375 "/></g></g></g><g fill="#2c3892" fill-opacity="1"><g transform="translate(173.264834, 305.429365)"><g><path d="M 10.03125 -5.9375 L 4.28125 -5.9375 L 4.28125 0 L 1.296875 0 L 1.296875 -14.515625 L 10.75 -14.515625 L 10.75 -12.09375 L 4.28125 -12.09375 L 4.28125 -8.34375 L 10.03125 -8.34375 Z M 10.03125 -5.9375 "/></g></g></g><g fill="#2c3892" fill-opacity="1"><g transform="translate(187.680607, 305.429365)"><g/></g></g><g fill="#2c3892" fill-opacity="1"><g transform="translate(195.993727, 305.429365)"><g><path d="M 4.28125 -5.109375 L 4.28125 0 L 1.296875 0 L 1.296875 -14.515625 L 6.953125 -14.515625 C 8.046875 -14.515625 9.003906 -14.316406 9.828125 -13.921875 C 10.660156 -13.523438 11.300781 -12.957031 11.75 -12.21875 C 12.195312 -11.488281 12.421875 -10.65625 12.421875 -9.71875 C 12.421875 -8.289062 11.929688 -7.164062 10.953125 -6.34375 C 9.984375 -5.519531 8.632812 -5.109375 6.90625 -5.109375 Z M 4.28125 -7.53125 L 6.953125 -7.53125 C 7.742188 -7.53125 8.347656 -7.71875 8.765625 -8.09375 C 9.179688 -8.46875 9.390625 -9 9.390625 -9.6875 C 9.390625 -10.40625 9.179688 -10.984375 8.765625 -11.421875 C 8.347656 -11.859375 7.769531 -12.082031 7.03125 -12.09375 L 4.28125 -12.09375 Z M 4.28125 -7.53125 "/></g></g></g><g fill="#2c3892" fill-opacity="1"><g transform="translate(212.393859, 305.429365)"><g><path d="M 6.671875 -5.3125 L 4.28125 -5.3125 L 4.28125 0 L 1.296875 0 L 1.296875 -14.515625 L 6.6875 -14.515625 C 8.40625 -14.515625 9.726562 -14.128906 10.65625 -13.359375 C 11.59375 -12.597656 12.0625 -11.519531 12.0625 -10.125 C 12.0625 -9.132812 11.84375 -8.304688 11.40625 -7.640625 C 10.976562 -6.984375 10.332031 -6.460938 9.46875 -6.078125 L 12.609375 -0.140625 L 12.609375 0 L 9.390625 0 Z M 4.28125 -7.734375 L 6.703125 -7.734375 C 7.453125 -7.734375 8.03125 -7.925781 8.4375 -8.3125 C 8.851562 -8.695312 9.0625 -9.222656 9.0625 -9.890625 C 9.0625 -10.578125 8.863281 -11.113281 8.46875 -11.5 C 8.082031 -11.894531 7.488281 -12.09375 6.6875 -12.09375 L 4.28125 -12.09375 Z M 4.28125 -7.734375 "/></g></g></g><g fill="#2c3892" fill-opacity="1"><g transform="translate(228.654388, 305.429365)"><g><path d="M 10.03125 -6.296875 L 4.28125 -6.296875 L 4.28125 -2.40625 L 11.03125 -2.40625 L 11.03125 0 L 1.296875 0 L 1.296875 -14.515625 L 11.015625 -14.515625 L 11.015625 -12.09375 L 4.28125 -12.09375 L 4.28125 -8.640625 L 10.03125 -8.640625 Z M 10.03125 -6.296875 "/></g></g></g><g fill="#2c3892" fill-opacity="1"><g transform="translate(243.369321, 305.429365)"><g><path d="M 8.828125 -3.8125 C 8.828125 -4.375 8.625 -4.804688 8.21875 -5.109375 C 7.820312 -5.410156 7.101562 -5.726562 6.0625 -6.0625 C 5.03125 -6.40625 4.210938 -6.738281 3.609375 -7.0625 C 1.960938 -7.945312 1.140625 -9.144531 1.140625 -10.65625 C 1.140625 -11.445312 1.359375 -12.148438 1.796875 -12.765625 C 2.242188 -13.378906 2.878906 -13.859375 3.703125 -14.203125 C 4.535156 -14.546875 5.460938 -14.71875 6.484375 -14.71875 C 7.523438 -14.71875 8.453125 -14.53125 9.265625 -14.15625 C 10.078125 -13.78125 10.707031 -13.25 11.15625 -12.5625 C 11.601562 -11.875 11.828125 -11.097656 11.828125 -10.234375 L 8.828125 -10.234375 C 8.828125 -10.898438 8.617188 -11.414062 8.203125 -11.78125 C 7.785156 -12.144531 7.195312 -12.328125 6.4375 -12.328125 C 5.707031 -12.328125 5.140625 -12.171875 4.734375 -11.859375 C 4.328125 -11.554688 4.125 -11.15625 4.125 -10.65625 C 4.125 -10.175781 4.359375 -9.773438 4.828125 -9.453125 C 5.304688 -9.140625 6.007812 -8.84375 6.9375 -8.5625 C 8.644531 -8.050781 9.882812 -7.414062 10.65625 -6.65625 C 11.4375 -5.90625 11.828125 -4.960938 11.828125 -3.828125 C 11.828125 -2.566406 11.347656 -1.578125 10.390625 -0.859375 C 9.441406 -0.148438 8.164062 0.203125 6.5625 0.203125 C 5.445312 0.203125 4.429688 0 3.515625 -0.40625 C 2.597656 -0.820312 1.894531 -1.382812 1.40625 -2.09375 C 0.925781 -2.800781 0.6875 -3.625 0.6875 -4.5625 L 3.6875 -4.5625 C 3.6875 -2.957031 4.644531 -2.15625 6.5625 -2.15625 C 7.269531 -2.15625 7.820312 -2.300781 8.21875 -2.59375 C 8.625 -2.882812 8.828125 -3.289062 8.828125 -3.8125 Z M 8.828125 -3.8125 "/></g></g></g><g fill="#2c3892" fill-opacity="1"><g transform="translate(259.15121, 305.429365)"><g><path d="M 10.03125 -6.296875 L 4.28125 -6.296875 L 4.28125 -2.40625 L 11.03125 -2.40625 L 11.03125 0 L 1.296875 0 L 1.296875 -14.515625 L 11.015625 -14.515625 L 11.015625 -12.09375 L 4.28125 -12.09375 L 4.28125 -8.640625 L 10.03125 -8.640625 Z M 10.03125 -6.296875 "/></g></g></g><g fill="#2c3892" fill-opacity="1"><g transform="translate(273.866133, 305.429365)"><g><path d="M 13.109375 0 L 10.109375 0 L 4.28125 -9.546875 L 4.28125 0 L 1.296875 0 L 1.296875 -14.515625 L 4.28125 -14.515625 L 10.125 -4.953125 L 10.125 -14.515625 L 13.109375 -14.515625 Z M 13.109375 0 "/></g></g></g><g fill="#2c3892" fill-opacity="1"><g transform="translate(291.512721, 305.429365)"><g><path d="M 12.6875 -4.84375 C 12.582031 -3.28125 12.007812 -2.046875 10.96875 -1.140625 C 9.925781 -0.242188 8.550781 0.203125 6.84375 0.203125 C 4.988281 0.203125 3.523438 -0.421875 2.453125 -1.671875 C 1.390625 -2.929688 0.859375 -4.65625 0.859375 -6.84375 L 0.859375 -7.734375 C 0.859375 -9.128906 1.101562 -10.359375 1.59375 -11.421875 C 2.082031 -12.484375 2.785156 -13.296875 3.703125 -13.859375 C 4.617188 -14.429688 5.679688 -14.71875 6.890625 -14.71875 C 8.566406 -14.71875 9.914062 -14.269531 10.9375 -13.375 C 11.957031 -12.476562 12.550781 -11.21875 12.71875 -9.59375 L 9.71875 -9.59375 C 9.644531 -10.53125 9.382812 -11.207031 8.9375 -11.625 C 8.488281 -12.050781 7.804688 -12.265625 6.890625 -12.265625 C 5.890625 -12.265625 5.140625 -11.90625 4.640625 -11.1875 C 4.148438 -10.476562 3.898438 -9.375 3.890625 -7.875 L 3.890625 -6.765625 C 3.890625 -5.203125 4.125 -4.054688 4.59375 -3.328125 C 5.070312 -2.609375 5.820312 -2.25 6.84375 -2.25 C 7.769531 -2.25 8.460938 -2.457031 8.921875 -2.875 C 9.378906 -3.300781 9.640625 -3.957031 9.703125 -4.84375 Z M 12.6875 -4.84375 "/></g></g></g><g fill="#2c3892" fill-opacity="1"><g transform="translate(308.102315, 305.429365)"><g><path d="M 10.03125 -6.296875 L 4.28125 -6.296875 L 4.28125 -2.40625 L 11.03125 -2.40625 L 11.03125 0 L 1.296875 0 L 1.296875 -14.515625 L 11.015625 -14.515625 L 11.015625 -12.09375 L 4.28125 -12.09375 L 4.28125 -8.640625 L 10.03125 -8.640625 Z M 10.03125 -6.296875 "/></g></g></g></svg>