<svg xmlns="http://www.w3.org/2000/svg" xmlns:xlink="http://www.w3.org/1999/xlink" width="250" zoomAndPan="magnify" viewBox="0 0 2250 2250.000011" height="250" preserveAspectRatio="xMidYMid meet" version="1.0"><defs><clipPath id="e21349be11"><path d="M 523 661.578125 L 1727.539062 661.578125 L 1727.539062 1587.417969 L 523 1587.417969 Z M 523 661.578125 " clip-rule="nonzero"/></clipPath></defs><g clip-path="url(#e21349be11)"><path fill="#1c5a81" d="M 615.8125 661.578125 C 564.644531 661.578125 523.199219 703.011719 523.199219 754.164062 L 523.199219 1494.832031 C 523.199219 1545.984375 564.644531 1587.417969 615.8125 1587.417969 L 1634.554688 1587.417969 C 1685.722656 1587.417969 1727.164062 1545.984375 1727.164062 1494.832031 L 1727.164062 754.164062 C 1727.164062 703.011719 1685.722656 661.578125 1634.554688 661.578125 Z M 766.398438 939.332031 L 881.714844 939.332031 L 1006.253906 1309.664062 L 903.601562 1309.664062 L 880.445312 1228.292969 L 759.527344 1228.292969 L 735.648438 1309.664062 L 642.132812 1309.664062 Z M 1078.875 939.332031 L 1241.128906 939.332031 C 1320.730469 939.332031 1374.621094 991.214844 1374.621094 1070.792969 C 1374.621094 1149.582031 1317.902344 1201.078125 1235.523438 1201.078125 L 1173.027344 1201.078125 L 1173.027344 1309.664062 L 1078.875 1309.664062 Z M 1495.632812 939.332031 L 1589.785156 939.332031 L 1589.785156 1309.664062 L 1495.632812 1309.664062 Z M 1173.117188 1011.660156 L 1173.117188 1130.011719 L 1215.714844 1130.011719 C 1255.769531 1130.011719 1279.386719 1109.441406 1279.386719 1070.972656 C 1279.339844 1031.949219 1256.035156 1011.660156 1216.257812 1011.660156 Z M 818.042969 1022.78125 L 777.433594 1160.574219 L 862.71875 1160.574219 L 822.925781 1022.78125 Z M 818.042969 1022.78125 " fill-opacity="1" fill-rule="nonzero"/></g></svg>