<?xml version="1.0" encoding="utf-8"?>
<!-- Generator: Adobe Illustrator 21.1.0, SVG Export Plug-In . SVG Version: 6.00 Build 0)  -->
<svg version="1.1" id="Capa_1" xmlns="http://www.w3.org/2000/svg" xmlns:xlink="http://www.w3.org/1999/xlink" x="0px" y="0px"
	 viewBox="0 0 350 156.2" style="enable-background:new 0 0 350 156.2;" xml:space="preserve">
<style type="text/css">
	.st0{fill:#1E427B;}
	.st1{fill:#F26C21;}
</style>
<g>
	<path class="st0" d="M0.1,102.4l24.3-3.7c1,4.7,3.1,8.3,6.3,10.7s7.6,3.7,13.3,3.7c6.3,0,11-1.2,14.1-3.4c2.1-1.6,3.2-3.8,3.2-6.5
		c0-1.8-0.6-3.4-1.7-4.6c-1.2-1.2-3.9-2.2-8.1-3.2C32,91.1,19.6,87.2,14.3,83.6C7.1,78.7,3.5,71.8,3.5,63c0-7.9,3.1-14.6,9.4-20
		s16-8.1,29.1-8.1c12.5,0,21.8,2,27.9,6.1s10.3,10.2,12.6,18.1l-22.8,4.2c-1-3.6-2.8-6.3-5.6-8.2c-2.7-1.9-6.6-2.8-11.7-2.8
		c-6.4,0-11,0.9-13.7,2.7c-1.8,1.3-2.8,2.9-2.8,4.9c0,1.7,0.8,3.2,2.4,4.4c2.2,1.6,9.7,3.9,22.6,6.8s21.9,6.5,27,10.8
		s7.6,10.3,7.6,18c0,8.4-3.5,15.6-10.5,21.6s-17.4,9.1-31.1,9.1c-12.5,0-22.3-2.5-29.6-7.6C7.1,117.9,2.3,111.1,0.1,102.4z"/>
	<path class="st0" d="M106.8,24.6V2.2H131v22.4H106.8L106.8,24.6z M106.8,128.5V37H131v91.5H106.8z"/>
	<path class="st0" d="M197.8,37v19.3h-16.6v36.9c0,7.5,0.2,11.8,0.5,13.1s1,2.3,2.1,3.1c1.1,0.8,2.5,1.2,4.1,1.2
		c2.2,0,5.5-0.8,9.7-2.3l2.1,18.8c-5.6,2.4-12,3.6-19.1,3.6c-4.4,0-8.3-0.7-11.8-2.2c-3.5-1.5-6.1-3.4-7.7-5.7
		c-1.6-2.3-2.8-5.5-3.4-9.4c-0.5-2.8-0.8-8.5-0.8-17.1v-40h-11.1V37h11.1V18.8l24.3-14.1V37H197.8L197.8,37z"/>
	<path class="st0" d="M206.1,102.4l24.3-3.7c1,4.7,3.1,8.3,6.3,10.7c3.2,2.4,7.6,3.7,13.3,3.7c6.3,0,11-1.2,14.1-3.4
		c2.1-1.6,3.2-3.8,3.2-6.5c0-1.8-0.6-3.4-1.7-4.6c-1.2-1.2-3.9-2.2-8.1-3.2c-19.5-4.3-31.9-8.2-37.1-11.8
		c-7.2-4.9-10.9-11.8-10.9-20.6c0-7.9,3.1-14.6,9.4-20s16-8.1,29.1-8.1c12.5,0,21.8,2,27.9,6.1s10.2,10.1,12.5,18.1l-22.8,4.2
		c-1-3.6-2.8-6.3-5.6-8.2s-6.6-2.8-11.7-2.8c-6.4,0-10.9,0.9-13.7,2.7c-1.8,1.3-2.8,2.9-2.8,4.9c0,1.7,0.8,3.2,2.4,4.4
		c2.2,1.6,9.7,3.9,22.6,6.8s21.9,6.5,27,10.8s7.6,10.3,7.6,18c0,8.4-3.5,15.6-10.5,21.6s-17.4,9.1-31.1,9.1
		c-12.5,0-22.3-2.5-29.6-7.6C213.1,117.9,208.3,111.1,206.1,102.4z"/>
	<polygon class="st1" points="312.6,25.8 322.9,0 350,0 327.9,25.8 	"/>
	<rect x="312.8" y="37" class="st0" width="24.2" height="91.5"/>
	<g>
		<path class="st0" d="M0,156v-9.6h1.5v1.3c0.3-0.5,0.7-0.8,1.2-1.1s1.1-0.4,1.7-0.4c0.7,0,1.3,0.1,1.7,0.4c0.4,0.3,0.8,0.7,1,1.2
			c0.8-1.1,1.7-1.7,2.9-1.7c0.9,0,1.7,0.3,2.2,0.8s0.8,1.3,0.8,2.4v6.6h-1.6v-6c0-0.6-0.1-1.1-0.2-1.4c-0.1-0.3-0.3-0.5-0.6-0.7
			s-0.6-0.3-1-0.3c-0.7,0-1.2,0.2-1.7,0.7c-0.4,0.4-0.7,1.2-0.7,2.1v5.6H5.7v-6.2c0-0.7-0.1-1.3-0.4-1.6c-0.3-0.4-0.7-0.5-1.3-0.5
			c-0.5,0-0.9,0.1-1.3,0.4c-0.4,0.2-0.7,0.6-0.8,1.1s-0.3,1.1-0.3,2v4.9H0L0,156z"/>
		<path class="st0" d="M27.4,154.8c-0.6,0.5-1.2,0.9-1.7,1.1s-1.1,0.3-1.8,0.3c-1,0-1.9-0.3-2.4-0.8c-0.6-0.5-0.8-1.2-0.8-2
			c0-0.5,0.1-0.9,0.3-1.3s0.5-0.7,0.8-0.9s0.7-0.4,1.2-0.5c0.3-0.1,0.8-0.2,1.4-0.2c1.3-0.2,2.3-0.3,2.9-0.6c0-0.2,0-0.4,0-0.4
			c0-0.7-0.1-1.1-0.5-1.4c-0.4-0.4-1-0.6-1.8-0.6s-1.3,0.1-1.7,0.4c-0.4,0.3-0.6,0.7-0.8,1.4l-1.6-0.2c0.1-0.7,0.4-1.2,0.7-1.6
			s0.8-0.7,1.4-1s1.4-0.3,2.2-0.3c0.8,0,1.5,0.1,2,0.3s0.9,0.4,1.1,0.7s0.4,0.7,0.5,1.1c0,0.3,0.1,0.8,0.1,1.5v2.2
			c0,1.5,0,2.5,0.1,2.9s0.2,0.8,0.4,1.1h-1.7C27.5,155.6,27.4,155.2,27.4,154.8z M27.2,151.2c-0.6,0.2-1.5,0.4-2.6,0.6
			c-0.7,0.1-1.1,0.2-1.4,0.3s-0.5,0.3-0.6,0.5s-0.2,0.5-0.2,0.8c0,0.4,0.2,0.8,0.5,1.1s0.8,0.4,1.4,0.4s1.2-0.1,1.7-0.4
			c0.5-0.3,0.8-0.6,1.1-1.1c0.2-0.4,0.3-0.9,0.3-1.6C27.2,151.8,27.2,151.2,27.2,151.2z"/>
		<path class="st0" d="M37.2,156v-9.6h1.5v1.4c0.4-0.7,0.7-1.1,1-1.3s0.7-0.3,1-0.3c0.5,0,1.1,0.2,1.7,0.5l-0.6,1.5
			c-0.4-0.2-0.8-0.4-1.2-0.4c-0.3,0-0.7,0.1-1,0.3s-0.5,0.5-0.6,0.9c-0.2,0.6-0.3,1.2-0.3,1.9v5L37.2,156L37.2,156z"/>
		<path class="st0" d="M49.1,156v-13.2h1.6v7.5l3.8-3.9h2.1l-3.7,3.5l4,6h-2l-3.2-4.9l-1.1,1.1v3.8L49.1,156L49.1,156z"/>
		<path class="st0" d="M70.6,152.9l1.7,0.2c-0.3,1-0.8,1.7-1.5,2.3c-0.7,0.5-1.6,0.8-2.7,0.8c-1.4,0-2.5-0.4-3.3-1.3
			s-1.2-2.1-1.2-3.6c0-1.6,0.4-2.9,1.2-3.7c0.8-0.8,1.9-1.3,3.2-1.3c1.3,0,2.3,0.4,3.1,1.3c0.8,0.9,1.2,2.1,1.2,3.7
			c0,0.1,0,0.2,0,0.4h-7.1c0.1,1.1,0.4,1.9,0.9,2.4s1.2,0.8,2,0.8c0.6,0,1.1-0.2,1.5-0.5C70.1,154.1,70.4,153.6,70.6,152.9z
			 M65.3,150.3h5.3c-0.1-0.8-0.3-1.4-0.6-1.8c-0.5-0.6-1.2-0.9-2-0.9c-0.7,0-1.4,0.3-1.9,0.8C65.7,148.8,65.4,149.4,65.3,150.3z"/>
		<path class="st0" d="M83.7,154.5l0.2,1.4c-0.5,0.1-0.9,0.1-1.2,0.1c-0.6,0-1-0.1-1.4-0.3c-0.3-0.2-0.6-0.4-0.7-0.7
			s-0.2-0.9-0.2-1.9v-5.5h-1.2v-1.3h1.2v-2.2l1.6-1v3.3h1.6v1.3H82v5.6c0,0.5,0,0.8,0.1,0.9s0.2,0.2,0.3,0.3
			c0.1,0.1,0.3,0.1,0.6,0.1C83.2,154.6,83.4,154.6,83.7,154.5z"/>
		<path class="st0" d="M102,156v-9.6h1.5v1.4c0.4-0.7,0.7-1.1,1-1.3s0.7-0.3,1-0.3c0.6,0,1.1,0.2,1.7,0.5l-0.6,1.5
			c-0.4-0.2-0.8-0.4-1.2-0.4c-0.3,0-0.7,0.1-0.9,0.3s-0.5,0.5-0.6,0.9c-0.2,0.6-0.3,1.2-0.3,1.9v5L102,156L102,156z"/>
		<path class="st0" d="M120.4,152.9l1.7,0.2c-0.3,1-0.8,1.7-1.5,2.3c-0.7,0.5-1.6,0.8-2.7,0.8c-1.4,0-2.5-0.4-3.3-1.3
			s-1.2-2.1-1.2-3.6c0-1.6,0.4-2.9,1.2-3.7c0.8-0.9,1.9-1.3,3.2-1.3c1.3,0,2.3,0.4,3.1,1.3c0.8,0.9,1.2,2.1,1.2,3.7
			c0,0.1,0,0.2,0,0.4H115c0.1,1.1,0.4,1.9,0.9,2.4s1.2,0.8,2,0.8c0.6,0,1.1-0.2,1.5-0.5C119.9,154.1,120.2,153.6,120.4,152.9z
			 M115.1,150.3h5.3c-0.1-0.8-0.3-1.4-0.6-1.8c-0.5-0.6-1.2-0.9-2-0.9c-0.7,0-1.4,0.3-1.9,0.8C115.5,148.8,115.2,149.4,115.1,150.3z
			"/>
		<path class="st0" d="M129.3,153.1l1.6-0.3c0.1,0.6,0.3,1.1,0.8,1.5s1,0.5,1.7,0.5s1.3-0.1,1.6-0.4s0.5-0.7,0.5-1.1
			c0-0.4-0.2-0.6-0.5-0.9c-0.2-0.1-0.8-0.3-1.6-0.6c-1.2-0.3-2-0.6-2.5-0.8s-0.8-0.5-1-0.9s-0.4-0.8-0.4-1.3c0-0.4,0.1-0.8,0.3-1.2
			s0.5-0.7,0.8-0.9s0.6-0.3,1-0.5c0.4-0.1,0.9-0.2,1.4-0.2c0.8,0,1.4,0.1,2,0.3s1,0.5,1.3,0.9s0.5,0.9,0.6,1.5l-1.6,0.2
			c-0.1-0.5-0.3-0.9-0.6-1.1s-0.8-0.4-1.5-0.4s-1.3,0.1-1.6,0.4c-0.3,0.3-0.5,0.5-0.5,0.9c0,0.2,0.1,0.4,0.2,0.6
			c0.1,0.2,0.3,0.3,0.6,0.4c0.2,0.1,0.6,0.2,1.4,0.4c1.1,0.3,1.9,0.6,2.4,0.8c0.4,0.2,0.8,0.5,1.1,0.9s0.4,0.8,0.4,1.4
			c0,0.5-0.2,1.1-0.5,1.5c-0.3,0.5-0.8,0.8-1.4,1.1c-0.6,0.3-1.3,0.4-2,0.4c-1.2,0-2.2-0.3-2.8-0.8
			C129.9,154.9,129.5,154.1,129.3,153.1z"/>
		<path class="st0" d="M151.5,152.9l1.7,0.2c-0.3,1-0.8,1.7-1.5,2.3c-0.7,0.5-1.6,0.8-2.7,0.8c-1.4,0-2.5-0.4-3.3-1.3
			s-1.2-2.1-1.2-3.6c0-1.6,0.4-2.9,1.2-3.7s1.9-1.3,3.2-1.3s2.3,0.4,3.1,1.3c0.8,0.9,1.2,2.1,1.2,3.7c0,0.1,0,0.2,0,0.4h-7.1
			c0.1,1.1,0.4,1.9,0.9,2.4s1.2,0.8,2,0.8c0.6,0,1.1-0.2,1.5-0.5C150.9,154.1,151.2,153.6,151.5,152.9z M146.2,150.3h5.3
			c-0.1-0.8-0.3-1.4-0.6-1.8c-0.5-0.6-1.2-0.9-2-0.9c-0.7,0-1.4,0.3-1.9,0.8C146.5,148.8,146.2,149.4,146.2,150.3z"/>
		<path class="st0" d="M167.2,154.8c-0.6,0.5-1.2,0.9-1.7,1.1s-1.1,0.3-1.8,0.3c-1.1,0-1.9-0.3-2.4-0.8c-0.6-0.5-0.8-1.2-0.8-2
			c0-0.5,0.1-0.9,0.3-1.3s0.5-0.7,0.8-0.9s0.7-0.4,1.2-0.5c0.3-0.1,0.8-0.2,1.4-0.2c1.3-0.2,2.3-0.3,2.9-0.6c0-0.2,0-0.4,0-0.4
			c0-0.7-0.1-1.1-0.5-1.4c-0.4-0.4-1-0.6-1.8-0.6s-1.3,0.1-1.7,0.4c-0.4,0.3-0.6,0.7-0.8,1.4l-1.6-0.2c0.1-0.7,0.4-1.2,0.7-1.6
			s0.8-0.7,1.4-1s1.4-0.3,2.2-0.3s1.5,0.1,2,0.3s0.9,0.4,1.1,0.7c0.2,0.3,0.4,0.7,0.5,1.1c0.1,0.3,0.1,0.8,0.1,1.5v2.2
			c0,1.5,0,2.5,0.1,2.9s0.2,0.8,0.4,1.1h-1.7C167.4,155.6,167.3,155.2,167.2,154.8z M167.1,151.2c-0.6,0.2-1.5,0.4-2.6,0.6
			c-0.7,0.1-1.1,0.2-1.4,0.3c-0.3,0.1-0.5,0.3-0.6,0.5s-0.2,0.5-0.2,0.8c0,0.4,0.2,0.8,0.5,1.1s0.8,0.4,1.4,0.4
			c0.6,0,1.2-0.1,1.7-0.4c0.5-0.3,0.8-0.6,1.1-1.1c0.2-0.4,0.3-0.9,0.3-1.6v-0.6H167.1z"/>
		<path class="st0" d="M177,156v-9.6h1.5v1.4c0.4-0.7,0.7-1.1,1-1.3s0.7-0.3,1-0.3c0.6,0,1.1,0.2,1.7,0.5l-0.6,1.5
			c-0.4-0.2-0.8-0.4-1.2-0.4s-0.7,0.1-0.9,0.3s-0.5,0.5-0.6,0.9c-0.2,0.6-0.3,1.2-0.3,1.9v5L177,156L177,156z"/>
		<path class="st0" d="M195.2,152.5l1.6,0.2c-0.2,1.1-0.6,2-1.3,2.6s-1.6,0.9-2.6,0.9c-1.3,0-2.4-0.4-3.1-1.3s-1.2-2.1-1.2-3.7
			c0-1,0.2-1.9,0.5-2.7s0.9-1.4,1.6-1.7s1.5-0.6,2.3-0.6c1,0,1.9,0.3,2.5,0.8c0.7,0.5,1.1,1.3,1.3,2.2l-1.6,0.2
			c-0.1-0.6-0.4-1.1-0.8-1.4c-0.4-0.3-0.8-0.5-1.4-0.5c-0.8,0-1.5,0.3-2,0.9c-0.5,0.6-0.8,1.5-0.8,2.8s0.3,2.2,0.7,2.8
			c0.5,0.6,1.1,0.9,1.9,0.9c0.6,0,1.2-0.2,1.6-0.6C194.8,153.9,195.1,153.3,195.2,152.5z"/>
		<path class="st0" d="M204,156v-13.2h1.6v4.7c0.8-0.9,1.7-1.3,2.9-1.3c0.7,0,1.3,0.1,1.8,0.4c0.5,0.3,0.9,0.7,1.1,1.2
			c0.2,0.5,0.3,1.2,0.3,2.1v6.1h-1.6v-6.1c0-0.8-0.2-1.4-0.5-1.8c-0.4-0.4-0.9-0.6-1.5-0.6c-0.5,0-0.9,0.1-1.4,0.4
			c-0.4,0.3-0.7,0.6-0.9,1s-0.3,1-0.3,1.8v5.2L204,156L204,156z"/>
		<path class="st0" d="M230.3,153.1l1.6-0.3c0.1,0.6,0.3,1.1,0.8,1.5s1,0.5,1.7,0.5s1.3-0.1,1.6-0.4s0.5-0.7,0.5-1.1
			c0-0.4-0.2-0.6-0.5-0.9c-0.2-0.1-0.8-0.3-1.6-0.6c-1.2-0.3-2-0.6-2.5-0.8s-0.8-0.5-1-0.9s-0.4-0.8-0.4-1.3c0-0.4,0.1-0.8,0.3-1.2
			s0.5-0.7,0.8-0.9s0.6-0.3,1-0.5c0.4-0.1,0.9-0.2,1.4-0.2c0.8,0,1.4,0.1,2,0.3s1,0.5,1.3,0.9s0.5,0.9,0.6,1.5l-1.6,0.2
			c-0.1-0.5-0.3-0.9-0.6-1.1s-0.8-0.4-1.5-0.4s-1.3,0.1-1.6,0.4c-0.3,0.3-0.5,0.5-0.5,0.9c0,0.2,0.1,0.4,0.2,0.6
			c0.1,0.2,0.3,0.3,0.6,0.4c0.2,0.1,0.6,0.2,1.4,0.4c1.1,0.3,1.9,0.6,2.4,0.8c0.4,0.2,0.8,0.5,1.1,0.9s0.4,0.8,0.4,1.4
			c0,0.5-0.2,1.1-0.5,1.5c-0.3,0.5-0.8,0.8-1.4,1.1s-1.3,0.4-2,0.4c-1.2,0-2.2-0.3-2.8-0.8C230.9,154.9,230.4,154.1,230.3,153.1z"/>
		<path class="st0" d="M252.4,152.9l1.7,0.2c-0.3,1-0.8,1.7-1.5,2.3c-0.7,0.5-1.6,0.8-2.7,0.8c-1.4,0-2.5-0.4-3.3-1.3
			s-1.2-2.1-1.2-3.6c0-1.6,0.4-2.9,1.2-3.7s1.9-1.3,3.2-1.3s2.3,0.4,3.1,1.3c0.8,0.9,1.2,2.1,1.2,3.7c0,0.1,0,0.2,0,0.4H247
			c0.1,1.1,0.4,1.9,0.9,2.4s1.2,0.8,2,0.8c0.6,0,1.1-0.2,1.5-0.5C251.9,154.1,252.2,153.6,252.4,152.9z M247.1,150.3h5.3
			c-0.1-0.8-0.3-1.4-0.6-1.8c-0.5-0.6-1.2-0.9-2-0.9c-0.7,0-1.4,0.3-1.9,0.8C247.5,148.8,247.2,149.4,247.1,150.3z"/>
		<path class="st0" d="M261.9,156v-9.6h1.5v1.4c0.4-0.7,0.7-1.1,1-1.3s0.7-0.3,1-0.3c0.5,0,1.1,0.2,1.7,0.5l-0.6,1.5
			c-0.4-0.2-0.8-0.4-1.2-0.4c-0.4,0-0.7,0.1-1,0.3s-0.5,0.5-0.6,0.9c-0.2,0.6-0.3,1.2-0.3,1.9v5L261.9,156L261.9,156z"/>
		<path class="st0" d="M276.5,156l-3.6-9.6h1.7l2,5.7c0.2,0.6,0.4,1.3,0.6,1.9c0.1-0.5,0.3-1.1,0.6-1.8l2.1-5.8h1.7L278,156
			L276.5,156L276.5,156z"/>
		<path class="st0" d="M288.9,144.6v-1.9h1.6v1.9H288.9z M288.9,156v-9.6h1.6v9.6H288.9z"/>
		<path class="st0" d="M305,152.5l1.6,0.2c-0.2,1.1-0.6,2-1.3,2.6s-1.6,0.9-2.6,0.9c-1.3,0-2.4-0.4-3.1-1.3s-1.2-2.1-1.2-3.7
			c0-1,0.2-1.9,0.5-2.7s0.9-1.4,1.6-1.7s1.5-0.6,2.3-0.6c1,0,1.9,0.3,2.5,0.8c0.7,0.5,1.1,1.3,1.3,2.2l-1.6,0.2
			c-0.1-0.6-0.4-1.1-0.8-1.4c-0.4-0.3-0.8-0.5-1.4-0.5c-0.8,0-1.5,0.3-2,0.9c-0.5,0.6-0.8,1.5-0.8,2.8s0.3,2.2,0.7,2.8
			c0.5,0.6,1.1,0.9,1.9,0.9c0.6,0,1.2-0.2,1.6-0.6C304.6,153.9,304.9,153.3,305,152.5z"/>
		<path class="st0" d="M320.3,152.9l1.7,0.2c-0.3,1-0.8,1.7-1.5,2.3c-0.7,0.5-1.6,0.8-2.7,0.8c-1.4,0-2.5-0.4-3.3-1.3
			s-1.2-2.1-1.2-3.6c0-1.6,0.4-2.9,1.2-3.7s1.9-1.3,3.2-1.3c1.3,0,2.3,0.4,3.1,1.3c0.8,0.9,1.2,2.1,1.2,3.7c0,0.1,0,0.2,0,0.4h-7.1
			c0.1,1.1,0.4,1.9,0.9,2.4c0.5,0.6,1.2,0.8,2,0.8c0.6,0,1.1-0.2,1.5-0.5C319.7,154.1,320.1,153.6,320.3,152.9z M315,150.3h5.3
			c-0.1-0.8-0.3-1.4-0.6-1.8c-0.5-0.6-1.2-0.9-2-0.9c-0.7,0-1.4,0.3-1.9,0.8C315.3,148.8,315.1,149.4,315,150.3z"/>
		<path class="st0" d="M329.2,153.1l1.6-0.3c0.1,0.6,0.3,1.1,0.8,1.5s1,0.5,1.7,0.5s1.3-0.1,1.6-0.4s0.5-0.7,0.5-1.1
			c0-0.4-0.2-0.6-0.5-0.9c-0.2-0.1-0.8-0.3-1.6-0.6c-1.2-0.3-2-0.6-2.5-0.8s-0.8-0.5-1-0.9s-0.4-0.8-0.4-1.3c0-0.4,0.1-0.8,0.3-1.2
			c0.2-0.4,0.5-0.7,0.8-0.9s0.6-0.3,1-0.5c0.4-0.1,0.9-0.2,1.4-0.2c0.8,0,1.4,0.1,2,0.3s1,0.5,1.3,0.9s0.5,0.9,0.6,1.5l-1.6,0.2
			c-0.1-0.5-0.3-0.9-0.6-1.1s-0.8-0.4-1.5-0.4s-1.3,0.1-1.6,0.4s-0.5,0.5-0.5,0.9c0,0.2,0.1,0.4,0.2,0.6c0.1,0.2,0.3,0.3,0.6,0.4
			c0.2,0.1,0.6,0.2,1.4,0.4c1.1,0.3,1.9,0.6,2.4,0.8s0.8,0.5,1.1,0.9c0.3,0.4,0.4,0.8,0.4,1.4c0,0.5-0.2,1.1-0.5,1.5
			c-0.3,0.5-0.8,0.8-1.4,1.1s-1.3,0.4-2,0.4c-1.2,0-2.2-0.3-2.8-0.8C329.8,154.9,329.4,154.1,329.2,153.1z"/>
	</g>
</g>
</svg>
