<svg role="img" aria-label="StackShare" width="100px" height="15px" viewBox="0 0 812 124" version="1.1" xmlns="http://www.w3.org/2000/svg" xmlns:xlink="http://www.w3.org/1999/xlink" xml:space="preserve" xmlns:serif="http://www.serif.com/" style="fill-rule:evenodd;clip-rule:evenodd;stroke-linejoin:round;stroke-miterlimit:1.41421;"><title>StackShare</title><g><path d="M221.086,85.794c0,7.342 -2.55,12.933 -7.651,16.775c-5.101,3.842 -12.731,5.762 -22.889,5.762c-5.208,0 -9.647,-0.352 -13.318,-1.056c-3.671,-0.704 -7.107,-1.739 -10.308,-3.105l0,-16.135c3.628,1.707 7.715,3.137 12.261,4.29c4.546,1.152 8.547,1.728 12.005,1.728c7.085,0 10.628,-2.048 10.628,-6.146c0,-1.537 -0.469,-2.785 -1.408,-3.746c-0.939,-0.96 -2.561,-2.048 -4.866,-3.265c-2.305,-1.216 -5.379,-2.636 -9.22,-4.258c-5.506,-2.305 -9.551,-4.439 -12.133,-6.402c-2.583,-1.964 -4.461,-4.215 -5.635,-6.755c-1.173,-2.54 -1.76,-5.666 -1.76,-9.38c0,-6.36 2.465,-11.279 7.395,-14.758c4.93,-3.479 11.919,-5.218 20.968,-5.218c8.623,0 17.01,1.878 25.163,5.634l-5.891,14.086c-3.585,-1.537 -6.936,-2.796 -10.052,-3.778c-3.116,-0.981 -6.296,-1.472 -9.54,-1.472c-5.762,0 -8.643,1.558 -8.643,4.674c0,1.75 0.928,3.265 2.785,4.546c1.857,1.28 5.922,3.18 12.197,5.698c5.591,2.262 9.689,4.375 12.293,6.339c2.604,1.963 4.524,4.225 5.762,6.786c1.238,2.561 1.857,5.613 1.857,9.156Z" style="fill-rule:nonzero;"></path><path d="M259.924,92.773c3.415,0 7.513,-0.747 12.293,-2.241l0,14.534c-4.866,2.177 -10.841,3.265 -17.927,3.265c-7.811,0 -13.499,-1.974 -17.063,-5.922c-3.564,-3.948 -5.346,-9.871 -5.346,-17.767l0,-34.511l-9.348,0l0,-8.259l10.756,-6.531l5.635,-15.11l12.485,0l0,15.238l20.04,0l0,14.662l-20.04,0l0,34.511c0,2.774 0.779,4.823 2.337,6.146c1.558,1.323 3.617,1.985 6.178,1.985Z" style="fill-rule:nonzero;"></path><path d="M325.59,107.051l-3.778,-9.732l-0.512,0c-3.287,4.14 -6.669,7.011 -10.148,8.611c-3.479,1.601 -8.014,2.401 -13.606,2.401c-6.872,0 -12.282,-1.963 -16.23,-5.89c-3.949,-3.927 -5.923,-9.519 -5.923,-16.775c0,-7.598 2.657,-13.2 7.971,-16.807c5.315,-3.607 13.329,-5.602 24.042,-5.986l12.421,-0.384l0,-3.138c0,-7.256 -3.713,-10.884 -11.14,-10.884c-5.72,0 -12.443,1.728 -20.168,5.186l-6.467,-13.19c8.238,-4.311 17.372,-6.466 27.403,-6.466c9.604,0 16.967,2.091 22.089,6.274c5.122,4.183 7.683,10.543 7.683,19.08l0,47.7l-13.637,0Zm-5.763,-33.166l-7.555,0.256c-5.677,0.171 -9.902,1.195 -12.677,3.074c-2.774,1.878 -4.162,4.738 -4.162,8.579c0,5.506 3.159,8.259 9.476,8.259c4.525,0 8.142,-1.301 10.853,-3.905c2.71,-2.604 4.065,-6.061 4.065,-10.372l0,-5.891Z" style="fill-rule:nonzero;"></path><path d="M381.843,108.331c-22.281,0 -33.421,-12.229 -33.421,-36.687c0,-12.165 3.03,-21.459 9.091,-27.883c6.061,-6.424 14.748,-9.636 26.059,-9.636c8.281,0 15.708,1.622 22.281,4.866l-5.762,15.11c-3.074,-1.238 -5.933,-2.251 -8.58,-3.041c-2.646,-0.79 -5.293,-1.185 -7.939,-1.185c-10.159,0 -15.238,7.214 -15.238,21.641c0,14.001 5.079,21.001 15.238,21.001c3.756,0 7.235,-0.502 10.436,-1.505c3.202,-1.003 6.403,-2.571 9.604,-4.706l0,16.711c-3.158,2.006 -6.349,3.394 -9.572,4.162c-3.222,0.768 -7.288,1.152 -12.197,1.152Z" style="fill-rule:nonzero;"></path><path d="M432.398,68.123l8.516,-10.885l20.04,-21.769l22.025,0l-28.428,31.053l30.157,40.529l-22.537,0l-20.617,-29.004l-8.387,6.723l0,22.281l-19.528,0l0,-99.625l19.528,0l0,44.434l-1.025,16.263l0.256,0Z" style="fill-rule:nonzero;"></path><path d="M538.336,85.794c0,7.342 -2.55,12.933 -7.651,16.775c-5.101,3.842 -12.73,5.762 -22.889,5.762c-5.208,0 -9.647,-0.352 -13.318,-1.056c-3.671,-0.704 -7.107,-1.739 -10.308,-3.105l0,-16.135c3.628,1.707 7.715,3.137 12.261,4.29c4.546,1.152 8.548,1.728 12.005,1.728c7.086,0 10.628,-2.048 10.628,-6.146c0,-1.537 -0.469,-2.785 -1.408,-3.746c-0.939,-0.96 -2.561,-2.048 -4.866,-3.265c-2.305,-1.216 -5.378,-2.636 -9.22,-4.258c-5.506,-2.305 -9.551,-4.439 -12.133,-6.402c-2.582,-1.964 -4.46,-4.215 -5.634,-6.755c-1.174,-2.54 -1.761,-5.666 -1.761,-9.38c0,-6.36 2.465,-11.279 7.395,-14.758c4.93,-3.479 11.92,-5.218 20.969,-5.218c8.622,0 17.009,1.878 25.162,5.634l-5.89,14.086c-3.586,-1.537 -6.937,-2.796 -10.053,-3.778c-3.116,-0.981 -6.296,-1.472 -9.54,-1.472c-5.762,0 -8.643,1.558 -8.643,4.674c0,1.75 0.928,3.265 2.785,4.546c1.857,1.28 5.923,3.18 12.197,5.698c5.592,2.262 9.689,4.375 12.293,6.339c2.604,1.963 4.525,4.225 5.763,6.786c1.237,2.561 1.856,5.613 1.856,9.156Z" style="fill-rule:nonzero;"></path><path d="M613.093,107.051l-19.528,0l0,-41.809c0,-10.33 -3.841,-15.495 -11.524,-15.495c-5.464,0 -9.412,1.857 -11.845,5.571c-2.433,3.713 -3.65,9.732 -3.65,18.055l0,33.678l-19.528,0l0,-99.625l19.528,0l0,20.296c0,1.58 -0.149,5.293 -0.448,11.141l-0.448,5.762l1.024,0c4.354,-7 11.269,-10.5 20.745,-10.5c8.409,0 14.79,2.262 19.144,6.787c4.353,4.524 6.53,11.012 6.53,19.464l0,46.675Z" style="fill-rule:nonzero;"></path><path d="M672.1,107.051l-3.778,-9.732l-0.512,0c-3.286,4.14 -6.669,7.011 -10.148,8.611c-3.479,1.601 -8.014,2.401 -13.606,2.401c-6.872,0 -12.282,-1.963 -16.23,-5.89c-3.948,-3.927 -5.923,-9.519 -5.923,-16.775c0,-7.598 2.657,-13.2 7.972,-16.807c5.314,-3.607 13.328,-5.602 24.042,-5.986l12.421,-0.384l0,-3.138c0,-7.256 -3.714,-10.884 -11.141,-10.884c-5.72,0 -12.442,1.728 -20.168,5.186l-6.467,-13.19c8.238,-4.311 17.373,-6.466 27.403,-6.466c9.604,0 16.967,2.091 22.089,6.274c5.123,4.183 7.684,10.543 7.684,19.08l0,47.7l-13.638,0Zm-5.762,-33.166l-7.555,0.256c-5.677,0.171 -9.903,1.195 -12.678,3.074c-2.774,1.878 -4.161,4.738 -4.161,8.579c0,5.506 3.158,8.259 9.475,8.259c4.525,0 8.142,-1.301 10.853,-3.905c2.71,-2.604 4.066,-6.061 4.066,-10.372l0,-5.891Z" style="fill-rule:nonzero;"></path><path d="M739.238,34.125c2.646,0 4.845,0.192 6.595,0.576l-1.473,18.312c-1.579,-0.427 -3.5,-0.641 -5.762,-0.641c-6.232,0 -11.088,1.601 -14.566,4.802c-3.479,3.202 -5.218,7.684 -5.218,13.446l0,36.431l-19.528,0l0,-71.582l14.79,0l2.881,12.037l0.96,0c2.22,-4.012 5.218,-7.245 8.996,-9.7c3.777,-2.454 7.886,-3.681 12.325,-3.681Z" style="fill-rule:nonzero;"></path><path d="M779.293,48.019c-4.141,0 -7.385,1.312 -9.732,3.937c-2.348,2.625 -3.692,6.349 -4.034,11.173l27.403,0c-0.085,-4.824 -1.344,-8.548 -3.777,-11.173c-2.433,-2.625 -5.72,-3.937 -9.86,-3.937Zm2.753,60.312c-11.525,0 -20.531,-3.18 -27.019,-9.54c-6.488,-6.36 -9.732,-15.366 -9.732,-27.019c0,-11.994 2.998,-21.267 8.996,-27.819c5.997,-6.552 14.288,-9.828 24.874,-9.828c10.116,0 17.991,2.881 23.625,8.643c5.635,5.763 8.452,13.723 8.452,23.882l0,9.476l-46.163,0c0.213,5.549 1.857,9.882 4.93,12.997c3.073,3.116 7.384,4.674 12.933,4.674c4.311,0 8.388,-0.448 12.229,-1.344c3.842,-0.897 7.854,-2.326 12.037,-4.29l0,15.11c-3.414,1.708 -7.064,2.978 -10.948,3.81c-3.885,0.832 -8.622,1.248 -14.214,1.248Z" style="fill-rule:nonzero;"></path></g><g><path d="M101.98,83c-3.9,0 -7.157,2.792 -7.886,6.482c-0.212,1.564 0,3.123 0,3.123c0.73,3.687 3.986,6.477 7.885,6.477c4.434,0 8.042,-3.605 8.042,-8.04c0,-4.434 -3.608,-8.042 -8.042,-8.042m-69.938,-29c-4.434,0 -8.041,3.606 -8.041,8.041c0,4.433 3.607,8.041 8.041,8.041c4.435,0 8.042,-3.608 8.042,-8.041c0,-4.435 -3.607,-8.041 -8.042,-8.041m69.924,-12.918c4.435,0 8.042,-3.608 8.042,-8.041c0,-4.435 -3.607,-8.041 -8.042,-8.041c-3.898,0 -7.155,2.791 -7.885,6.48l0,0.049c0,0 -0.18,1.654 0,3.073c0.73,3.689 3.987,6.48 7.885,6.48" style="fill:#008ff9;"></path><path d="M101.965,105.961c-6.965,0 -12.841,-4.655 -14.692,-11.022l-13.897,0l-0.076,0.043l-16.575,-28.517l-10.133,0c-1.852,6.367 -7.727,11.023 -14.694,11.023c-8.451,0 -15.303,-6.852 -15.303,-15.303c0,-8.452 6.852,-15.305 15.303,-15.305c6.967,0 12.842,4.656 14.694,11.025l9.905,0l0.128,-0.217l16.675,-28.689l0.141,0.083l13.768,0c1.852,-6.369 7.727,-11.025 14.692,-11.025c8.453,0 15.305,6.853 15.305,15.305c0,8.451 -6.852,15.304 -15.305,15.304c-6.965,0 -12.84,-4.656 -14.692,-11.025l-9.03,0l-14.14,24.326l-0.006,0.023l0.005,0.022l14.162,24.366l9.073,0c1.851,-6.369 7.727,-11.026 14.692,-11.026c8.453,0 15.305,6.853 15.305,15.305c0,8.452 -6.852,15.304 -15.305,15.304Zm23.031,-105.961l-116.992,0c-4.42,0 -8.004,3.561 -8.004,7.953l0,108.094c0,4.393 3.584,7.953 8.004,7.953l116.992,0c4.421,0 8.004,-3.56 8.004,-7.953l0,-108.094c0,-4.392 -3.583,-7.953 -8.004,-7.953Z" style="fill:#008ff9;"></path></g></svg>